<?xml version="1.0" encoding="utf-8"?>
<!-- Generator: Adobe Illustrator 27.5.0, SVG Export Plug-In . SVG Version: 6.00 Build 0)  -->
<svg version="1.1" id="Layer_1" xmlns="http://www.w3.org/2000/svg" xmlns:xlink="http://www.w3.org/1999/xlink" x="0px" y="0px"
	 viewBox="0 0 36 36" style="enable-background:new 0 0 36 36;" xml:space="preserve">
<style type="text/css">
	.st0{fill-rule:evenodd;clip-rule:evenodd;fill:#FF4D9D;}
	.st1{fill:#FF4D9D;}
</style>
<g>
	<g>
		<circle class="st1" cx="17.86" cy="18.14" r="3.04"/>
		<path class="st1" d="M21.66,10.67h-7.6c-1.11,0-2.07,0.35-2.7,0.97c-0.62,0.62-0.97,1.59-0.97,2.7v7.6c0,1.11,0.35,2.07,1.04,2.76
			c0.69,0.62,1.59,0.97,2.7,0.97h7.53c1.11,0,2.07-0.35,2.7-0.97c0.69-0.62,1.04-1.59,1.04-2.7v-7.6c0-1.11-0.35-2-0.97-2.7
			C23.74,11.02,22.84,10.67,21.66,10.67z M17.86,22.84c-2.63,0-4.7-2.14-4.7-4.7c0-2.63,2.14-4.7,4.7-4.7s4.77,2.07,4.77,4.7
			S20.49,22.84,17.86,22.84z M22.77,14.34c-0.62,0-1.11-0.48-1.11-1.11s0.48-1.11,1.11-1.11s1.11,0.48,1.11,1.11
			S23.39,14.34,22.77,14.34z"/>
		<path class="st1" d="M18,1C8.6,1,1,8.6,1,18s7.6,17,17,17s17-7.6,17-17C35.07,8.6,27.4,1,18,1z M27.05,22.01
			c0,1.59-0.55,2.97-1.52,3.94c-0.97,0.97-2.35,1.45-3.87,1.45h-7.53c-1.52,0-2.9-0.48-3.87-1.45c-1.04-0.97-1.52-2.35-1.52-3.94
			v-7.6c0-3.18,2.14-5.39,5.39-5.39h7.6c1.59,0,2.9,0.55,3.87,1.52c0.97,0.97,1.45,2.28,1.45,3.87L27.05,22.01z"/>
	</g>
</g>
</svg>
