<?xml version="1.0" encoding="utf-8"?>
<!-- Generator: Adobe Illustrator 27.5.0, SVG Export Plug-In . SVG Version: 6.00 Build 0)  -->
<svg version="1.1" id="Layer_1" xmlns="http://www.w3.org/2000/svg" xmlns:xlink="http://www.w3.org/1999/xlink" x="0px" y="0px"
	 viewBox="0 0 36 36" style="enable-background:new 0 0 36 36;" xml:space="preserve">
<style type="text/css">
	.st0{fill-rule:evenodd;clip-rule:evenodd;fill:#FF4D9D;}
	.st1{fill:#FF4D9D;}
</style>
<g id="Layer_x0020_1_00000140726709443156282890000010164120674740268435_">
	<g>
		<path class="st0" d="M18,1c9.39,0,17,7.61,17,17s-7.61,17-17,17S1,27.39,1,18S8.61,1,18,1z M20.33,17.47
			c-0.2-0.47-0.42-0.94-0.64-1.4c1.93-0.84,3.48-1.97,4.64-3.41c1.13,1.33,1.84,3.02,1.94,4.88C24.11,17.18,22.13,17.16,20.33,17.47
			L20.33,17.47z M22.6,24.89c-0.37-1.97-0.9-3.89-1.6-5.76c1.57-0.22,3.29-0.16,5.18,0.16C25.81,21.62,24.48,23.63,22.6,24.89
			L22.6,24.89z M12.92,24.53c1.65-2.58,3.75-4.26,6.35-5.04c0.77,2.02,1.35,4.1,1.71,6.23C18.26,26.77,15.21,26.32,12.92,24.53
			L12.92,24.53z M9.73,17.79c3.22-0.01,5.99-0.37,8.32-1.11c0.2,0.4,0.38,0.79,0.56,1.2c-2.82,0.88-5.15,2.69-6.97,5.42
			C10.33,21.73,9.68,19.82,9.73,17.79L9.73,17.79z M14.26,10.62c1.11,1.46,2.1,2.96,2.96,4.5c-2.03,0.6-4.46,0.91-7.26,0.92
			C10.54,13.67,12.13,11.7,14.26,10.62z M23.05,11.45c-1.01,1.3-2.4,2.32-4.17,3.08c-0.85-1.56-1.82-3.07-2.92-4.54
			C18.45,9.35,21.02,9.87,23.05,11.45z M18,7.97C12.46,7.97,7.97,12.46,7.97,18S12.46,28.03,18,28.03c5.54,0,10.03-4.49,10.03-10.03
			S23.54,7.97,18,7.97L18,7.97z"/>
	</g>
</g>
</svg>
