<?xml version="1.0" encoding="utf-8"?>
<!-- Generator: Adobe Illustrator 27.5.0, SVG Export Plug-In . SVG Version: 6.00 Build 0)  -->
<svg version="1.1" id="Layer_1" xmlns="http://www.w3.org/2000/svg" xmlns:xlink="http://www.w3.org/1999/xlink" x="0px" y="0px"
	 viewBox="0 0 36 36" style="enable-background:new 0 0 36 36;" xml:space="preserve">
<style type="text/css">
	.st0{fill-rule:evenodd;clip-rule:evenodd;fill:#FF4D9D;}
	.st1{fill:#FF4D9D;}
</style>
<g>
	<path class="st0" d="M18,1C8.61,1,1,8.61,1,18c0,9.39,7.61,17,17,17c9.39,0,17-7.61,17-17C35,8.61,27.39,1,18,1z M13.05,26.5H9.57
		V15.26h3.47V26.5z M11.25,13.05h-0.02c-1.07,0-1.76-0.79-1.76-1.77c0-1.01,0.71-1.77,1.8-1.77c1.09,0,1.76,0.77,1.78,1.77
		C13.05,12.26,12.36,13.05,11.25,13.05z M26.53,26.5h-3.5v-6.4c0-1.54-0.86-2.32-2.24-2.32c-1.05,0-1.68,0.71-1.96,1.39
		c-0.1,0.24-0.13,0.59-0.13,0.93v6.4h-3.49c0,0,0.05-10.23,0-11.31h3.49l-0.03,1.5c0.5-0.78,1.4-1.93,3.46-1.93
		c2.51,0,4.39,1.64,4.39,5.16V26.5z"/>
</g>
</svg>
