<?xml version="1.0" encoding="UTF-8"?>
<svg id="Layer_1" data-name="Layer 1" xmlns="http://www.w3.org/2000/svg" viewBox="0 0 36 36">
  <defs>
    <style>
      .cls-1 {
        fill: #ff4d9d;
      }
    </style>
  </defs>
  <path class="cls-1" d="m18,1C8.6,1,1,8.6,1,18s7.6,17,17,17,17-7.6,17-17c.07-9.4-7.6-17-17-17Zm10.65,20.8c0,1.59-.55,2.97-1.52,3.94s-2.35,1.45-3.87,1.45h-10.51c-1.52,0-2.9-.48-3.87-1.45-1.04-.97-1.52-2.35-1.52-3.94v-7.6c0-3.18,2.14-5.39,5.39-5.39h10.58c1.59,0,2.9.55,3.87,1.52.97.97,1.45,2.28,1.45,3.87v7.6Z"/>
  <g>
    <path class="cls-1" d="m18.5,19.29c-.15.11-.33.17-.5.17s-.35-.06-.51-.17l-8.34-6.23c-.08.35-.14.71-.14,1.1v7.6c0,1.11.35,2.07,1.04,2.76.69.62,1.59.97,2.7.97h10.51c1.11,0,2.07-.35,2.7-.97.69-.62,1.04-1.59,1.04-2.7v-7.6c0-.4-.06-.76-.15-1.11l-8.34,6.17Z"/>
    <path class="cls-1" d="m18,17.56l8.06-5.97s-.03-.04-.04-.06c-.69-.69-1.59-1.04-2.76-1.04h-10.58c-1.11,0-2.07.35-2.7.97-.02.02-.03.05-.05.07l8.07,6.03Z"/>
  </g>
</svg>