<?xml version="1.0" encoding="UTF-8"?>
<svg id="Layer_1" xmlns="http://www.w3.org/2000/svg" version="1.1" viewBox="0 0 959 245">
  <!-- Generator: Adobe Illustrator 29.3.1, SVG Export Plug-In . SVG Version: 2.1.0 Build 151)  -->
  <defs>
    <style>
      .st0 {
        fill: none;
        stroke: #e2c793;
        stroke-miterlimit: 10;
      }

      .st1 {
        fill: #f3e7cb;
      }
    </style>
  </defs>
  <path class="st1" d="M0,245V42.7c9.1,0,17.7,2.5,25,6.9,11.2-16,34.4-23.8,53.6-17,27.8-46.9,104.2-22.4,98.5,32.7,11.2,0,21.6,3.5,30.1,9.5,9.5-12.2,24-20.3,40.5-21,5.1-48.8,73.7-63.3,98.2-21.2,25.5-9,54.9,7.3,61.3,32.8,10.5.3,20.3,3.8,28.3,9.4,9.5-12.2,24-20.3,40.5-21,5.1-48.8,73.7-63.3,98.2-21.2,19.4-6.9,42.8,1.2,54,17.5,10-6,23.5-8.2,35.2-5.3,12.6-49.4,87-49.4,99.6,0,11.8-3,25.4-.8,35.4,5.3,11.2-16.3,34.6-24.4,54-17.5,23.5-38.5,82-31.5,96,11.3,3.4-.8,7-1.2,10.7-1.2v202.3H0Z"/>
  <path class="st1" d="M0,245V42.7c9.1,0,17.7,2.5,25,6.9,11.2-16,34.4-23.8,53.6-17,27.8-46.9,104.2-22.4,98.5,32.7,11.2,0,21.6,3.5,30.1,9.5,9.5-12.2,24-20.3,40.5-21,5.1-48.8,73.7-63.3,98.2-21.2,25.5-9,54.9,7.3,61.3,32.8,10.5.3,20.3,3.8,28.3,9.4,9.5-12.2,24-20.3,40.5-21,5.1-48.8,73.7-63.3,98.2-21.2,19.4-6.9,42.8,1.2,54,17.5,10-6,23.5-8.2,35.2-5.3,12.6-49.4,87-49.4,99.6,0,11.8-3,25.4-.8,35.4,5.3,11.2-16.3,34.6-24.4,54-17.5,23.5-38.5,82-31.5,96,11.3,3.4-.8,7-1.2,10.7-1.2v202.3H0Z"/>
  <path class="st0" d="M959,36.4c-5.3,0-10.3,1.1-14.8,3.1-14.2-42.5-72.4-49.4-95.8-11-19.4-6.9-42.8,1.2-54,17.5-10-6.1-23.7-8.2-35.4-5.3-12.5-49.5-87-49.5-99.6,0-11.7-2.9-25.2-.7-35.2,5.3-11.2-16.3-34.6-24.4-54-17.5-24.5-42.1-93.1-27.6-98.2,21.2-16.5.8-31,8.8-40.5,21-8.1-5.7-17.8-9.1-28.3-9.4-6.4-25.5-35.8-41.7-61.3-32.8-24.5-42.1-93.1-27.6-98.2,21.2-16.5.8-31,8.8-40.5,21-8.5-6-18.9-9.5-30.1-9.5C178.8,6.1,102.4-18.4,74.6,28.5c-18.4-6.5-40.5.4-52.2,15.1-6.3-4.5-14.1-7.2-22.4-7.2"/>
</svg>