<?xml version="1.0" encoding="UTF-8"?>
<svg id="Layer_1" xmlns="http://www.w3.org/2000/svg" version="1.1" viewBox="0 0 959 245">
  <!-- Generator: Adobe Illustrator 29.3.1, SVG Export Plug-In . SVG Version: 2.1.0 Build 151)  -->
  <defs>
    <style>
      .st0 {
        fill: #e2c793;
      }

      .st1 {
        fill: #f3e7cb;
      }
    </style>
  </defs>
  <path class="st1" d="M948.3,41.8c-3.8-11.4-11.2-21-21-27.6-8.4-5.8-18.6-9.3-29.5-9.3s-19.1,2.8-26.9,7.6c-7.5,4.4-13.9,10.6-18.5,18-4.7-1.6-9.8-2.4-15.1-2.4-16,0-30.2,7.9-38.9,19.9-7.1-4.2-15.4-6.6-24.3-6.6s-7.6.5-11.2,1.3c-6.1-21.8-26.1-37.8-49.8-37.8s-43.7,16-49.8,37.7c-3.5-.8-7.2-1.3-10.9-1.3-8.8,0-17.1,2.4-24.3,6.6-8.7-12.1-22.9-19.9-38.9-19.9s-10.3.9-15.1,2.4c-9.4-15.1-26.2-25.2-45.3-25.2-27.1,0-49.5,20.2-52.9,46.4-14.4.8-24.8,7.4-28.7,10.1s-11.2,10.7-11.2,10.7c-13.2-9-25.4-9.1-28.9-9.2-5.6-20.3-24.2-35.2-46.2-35.2s-10.3.9-15.1,2.4c-9.4-15.1-26.2-25.2-45.3-25.2-27.1,0-49.5,20.2-52.9,46.4-15.4,1.1-25.7,8.1-27.7,9.5-7.1,4.8-12.2,11.4-12.2,11.4-12.7-9-26.4-9.3-30.6-9.3h-.1c.1-1.5.2-3,.2-4.6,0-29.5-23.9-53.4-53.4-53.4s-35.9,10.1-45.3,25.2c-4.7-1.6-9.8-2.4-15.1-2.4-15.8,0-29.8,7.7-38.5,19.4-7.3-4.4-15.9-6.9-25-6.9v204h959V40.6c-3.7,0-7.2.4-10.7,1.2h0Z"/>
  <path class="st0" d="M0,37.2c7.3.6,14.4,2.9,20.8,6.6l.4.2.3-.4c9.1-12.2,23-19.2,38.1-19.2s10.1.8,14.9,2.4h.4c0,.1.2-.2.2-.2C84.8,11.1,101.6,1.7,119.9,1.7c29.1,0,52.9,23.7,52.9,52.9s0,2.9-.2,4.5v.5h.6c10.7,0,21,3.2,29.7,9.4l.4.3.3-.4c9.7-12.5,24.3-20.1,40.1-20.8h.4s0-.4,0-.4c3.4-26.2,25.9-46,52.4-46s35.2,9.3,44.9,25l.2.3h.4c4.8-1.7,9.8-2.5,14.9-2.5,21.3,0,40.1,14.3,45.8,34.8v.4h.5c10.1.3,19.8,3.5,28.1,9.4l.4.3.3-.4c9.7-12.5,24.3-20.1,40.1-20.8h.4s0-.4,0-.4c3.4-26.2,26-46,52.4-46s35.2,9.3,44.9,25l.2.3h.4c4.8-1.7,9.8-2.5,14.9-2.5,15.2,0,29.6,7.4,38.5,19.7l.3.4.4-.2c10.4-6.1,22.9-8,34.8-5.3h.5c0,.1.1-.3.1-.3,6.2-22,26.5-37.3,49.3-37.3s43.2,15.4,49.3,37.4v.5c.1,0,.6-.1.6-.1,12-2.8,24.6-.9,35,5.2l.4.2.3-.4c8.9-12.4,23.3-19.7,38.5-19.7s10.1.8,14.9,2.4h.4c0,.1.2-.2.2-.2,4.5-7.3,10.9-13.4,18.3-17.8,8-4.9,17.2-7.5,26.7-7.5s20.6,3.2,29.3,9.2c9.7,6.5,17.1,16.2,20.8,27.3v.4c.1,0,.6,0,.6,0,4.8-1.1,9.7-1.4,14.5-1h0v-1c-4.8-.4-9.6,0-14.4.9-3.8-11.1-11.3-20.8-21-27.4-8.8-6.1-19.1-9.4-29.8-9.4s-19,2.6-27.2,7.6c-7.5,4.4-13.8,10.5-18.5,17.8-4.8-1.5-9.8-2.3-14.8-2.3-15.4,0-29.9,7.4-39,19.8-10.5-6-23-7.9-34.9-5.2-6.4-22.2-27-37.7-50.2-37.7s-43.7,15.4-50.1,37.6c-11.9-2.6-24.3-.7-34.7,5.3-9.1-12.4-23.7-19.8-39-19.8s-10,.8-14.8,2.3c-10-15.7-26.9-25.1-45.5-25.1-26.8,0-49.7,19.9-53.3,46.4-15.7.8-30.3,8.4-40.1,20.8-8.2-5.7-17.8-8.8-27.9-9.2-5.9-20.7-25-35.2-46.6-35.2s-10,.8-14.9,2.3c-10-15.7-26.9-25.1-45.5-25.1-26.8,0-49.7,19.9-53.3,46.4-15.7.8-30.3,8.4-40.1,20.8-8.7-6-18.9-9.2-29.5-9.3.1-1.5.2-2.8.2-4.1,0-29.7-24.2-53.9-53.9-53.9s-35.6,9.4-45.6,25.1c-4.8-1.5-9.8-2.3-14.8-2.3-15.3,0-29.4,7-38.7,19.3-6.4-3.7-13.5-5.9-20.9-6.5v1Z"/>
</svg>