<?xml version="1.0" encoding="UTF-8"?>
<svg id="Layer_1" data-name="Layer 1" xmlns="http://www.w3.org/2000/svg" viewBox="0 0 959 245">
  <defs>
    <style>
      .cls-1 {
        fill: #f3e7cb;
      }

      .cls-1, .cls-2 {
        stroke-width: 0px;
      }

      .cls-2 {
        fill: #e2c793;
      }
    </style>
  </defs>
  <path class="cls-1" d="m948.3,41.76c-3.77-11.36-11.25-21.03-21.01-27.56-8.38-5.84-18.56-9.28-29.55-9.28-9.86,0-19.08,2.76-26.92,7.55-7.53,4.39-13.88,10.57-18.48,17.96-4.74-1.57-9.8-2.43-15.06-2.43-16.02,0-30.2,7.87-38.92,19.94-7.12-4.18-15.41-6.59-24.26-6.59-3.84,0-7.58.47-11.16,1.32-6.1-21.78-26.08-37.75-49.8-37.75s-43.67,15.95-49.79,37.69c-3.51-.82-7.16-1.26-10.91-1.26-8.85,0-17.14,2.41-24.26,6.59-8.71-12.07-22.89-19.94-38.92-19.94-5.26,0-10.32.86-15.06,2.43-9.42-15.13-26.19-25.21-45.33-25.21-27.1,0-49.47,20.21-52.89,46.38-12.49.57-23.87,5.36-32.77,12.97h-25.57c-3.37-.8-6.86-1.28-10.44-1.39-5.6-20.28-24.17-35.18-46.23-35.18-5.26,0-10.32.86-15.06,2.43-9.42-15.13-26.19-25.21-45.33-25.21-27.1,0-49.47,20.21-52.89,46.38-12.49.57-23.87,5.36-32.77,12.97h-25.49c-3.91-.94-7.98-1.43-12.18-1.43-.05,0-.09,0-.14,0,.13-1.51.21-3.02.21-4.56,0-29.47-23.89-53.36-53.36-53.36-19.14,0-35.91,10.08-45.33,25.21-4.74-1.57-9.8-2.43-15.06-2.43-15.8,0-29.79,7.65-38.53,19.44-7.32-4.36-15.88-6.87-25.02-6.87v204h959V40.58c-3.68,0-7.25.42-10.7,1.19Z"/>
  <path class="cls-2" d="m0,37.25c7.33.61,14.43,2.86,20.76,6.62l.39.23.27-.36c9.07-12.22,22.96-19.23,38.13-19.23,5.07,0,10.09.81,14.91,2.4l.37.12.21-.33C84.77,11.06,101.55,1.73,119.94,1.73c29.15,0,52.86,23.71,52.86,52.86,0,1.41-.07,2.89-.21,4.52l.09.54h.54c10.69,0,20.96,3.24,29.7,9.38l.39.27.29-.38c9.71-12.51,24.32-20.1,40.08-20.81l.42-.02.05-.42c3.43-26.19,25.95-45.95,52.4-45.95,18.38,0,35.17,9.34,44.9,24.97l.21.33.37-.12c4.82-1.59,9.84-2.4,14.91-2.4,21.28,0,40.09,14.31,45.75,34.81l.1.36h.37c10.1.33,19.81,3.55,28.06,9.35l.39.27.29-.38c9.71-12.51,24.32-20.1,40.08-20.81l.42-.02.05-.42c3.42-26.19,25.95-45.95,52.4-45.95,18.39,0,35.17,9.34,44.9,24.97l.21.33.37-.12c4.82-1.59,9.84-2.4,14.91-2.4,15.2,0,29.59,7.38,38.51,19.73l.27.37.39-.23c10.36-6.09,22.91-8.04,34.8-5.27l.46.11.13-.46c6.18-21.98,26.46-37.33,49.3-37.33s43.16,15.37,49.32,37.39l.13.46.47-.11c11.95-2.85,24.62-.92,35.05,5.22l.39.23.27-.37c8.92-12.36,23.31-19.73,38.51-19.73,5.07,0,10.08.81,14.91,2.4l.37.12.21-.33c4.54-7.3,10.87-13.45,18.32-17.8,8.01-4.89,17.23-7.48,26.66-7.48,10.52,0,20.64,3.18,29.27,9.2,9.74,6.51,17.13,16.21,20.81,27.3l.14.43.44-.1c4.8-1.07,9.71-1.4,14.55-1.01.01,0,.03,0,.04,0v-.99c-4.77-.38-9.63-.07-14.37.94-3.8-11.12-11.26-20.84-21.05-27.38-8.79-6.13-19.11-9.37-29.84-9.37-9.61,0-19.01,2.64-27.17,7.62-7.46,4.35-13.83,10.5-18.45,17.79-4.81-1.55-9.8-2.33-14.85-2.33-15.37,0-29.93,7.38-39.05,19.78-10.45-6.01-23.02-7.93-34.93-5.21-6.44-22.2-26.99-37.66-50.15-37.66s-43.68,15.44-50.14,37.6c-11.86-2.64-24.31-.7-34.68,5.26-9.12-12.39-23.69-19.78-39.05-19.78-5.05,0-10.04.78-14.85,2.33-9.95-15.73-26.94-25.11-45.55-25.11-26.81,0-49.66,19.92-53.33,46.4-15.74.84-30.31,8.4-40.12,20.81-8.23-5.67-17.84-8.85-27.85-9.23-5.9-20.74-25.01-35.19-46.61-35.19-5.05,0-10.04.78-14.85,2.33-9.95-15.73-26.94-25.11-45.54-25.11-26.81,0-49.66,19.92-53.33,46.4-15.74.84-30.31,8.4-40.12,20.81-8.71-6-18.89-9.21-29.48-9.29.11-1.45.17-2.78.17-4.06,0-29.7-24.16-53.86-53.86-53.86-18.6,0-35.6,9.38-45.55,25.11-4.81-1.55-9.8-2.33-14.85-2.33-15.33,0-29.4,7.02-38.66,19.28C14.5,39.07,7.36,36.85,0,36.26v.99Z"/>
</svg>