<?xml version="1.0" encoding="utf-8"?>
<!-- Generator: Adobe Illustrator 27.5.0, SVG Export Plug-In . SVG Version: 6.00 Build 0)  -->
<svg version="1.1" id="Layer_1" xmlns="http://www.w3.org/2000/svg" xmlns:xlink="http://www.w3.org/1999/xlink" x="0px" y="0px"
	 viewBox="0 0 330 132" style="enable-background:new 0 0 330 132;" xml:space="preserve">
<style type="text/css">
	.st0{fill:#770123;}
	.st1{fill:#FF4D9D;}
	.st2{fill:#FF4B09;}
	.st3{fill:#FC0061;}
	.st4{fill:#FFAADE;}
	.st5{fill:#FF9200;}
</style>
<g>
	<g>
		<g>
			<g>
				<path class="st0" d="M112.61,122.63c0.37,0,0.61,0.04,0.72,0.11c0.1,0.07,0.16,0.2,0.16,0.4c0,0.2-0.05,0.34-0.16,0.41
					c-0.1,0.08-0.34,0.11-0.72,0.11h-4.42h-0.34c-0.17,0-0.31-0.04-0.4-0.13c-0.09-0.09-0.14-0.22-0.14-0.39
					c0-0.19,0.05-0.33,0.16-0.4c0.11-0.07,0.35-0.11,0.72-0.11h1.65v-6.56h-1.65c-0.36,0-0.6-0.04-0.71-0.11
					c-0.11-0.08-0.17-0.21-0.17-0.41c0-0.18,0.05-0.31,0.14-0.4c0.09-0.08,0.23-0.13,0.41-0.13h0.33h4.42h0.34
					c0.17,0,0.31,0.04,0.4,0.13c0.09,0.09,0.13,0.22,0.13,0.39c0,0.2-0.05,0.34-0.16,0.41c-0.11,0.08-0.35,0.11-0.71,0.11h-1.65
					v6.56H112.61z"/>
			</g>
			<g>
				<path class="st0" d="M115.88,122.63v-4.67h-0.14c-0.33,0-0.56-0.04-0.68-0.12c-0.12-0.08-0.19-0.21-0.19-0.41
					c0-0.18,0.05-0.31,0.15-0.39c0.1-0.08,0.27-0.12,0.49-0.12h0.34h0.7c0.13,0,0.23,0.03,0.31,0.08c0.07,0.05,0.11,0.13,0.11,0.22
					v0.49c0.35-0.33,0.7-0.57,1.05-0.73c0.35-0.16,0.71-0.24,1.08-0.24c0.73,0,1.31,0.23,1.73,0.68c0.42,0.46,0.63,1.09,0.63,1.89
					v3.3h0.34c0.24,0,0.42,0.04,0.53,0.12c0.11,0.08,0.16,0.21,0.16,0.38c0,0.19-0.06,0.32-0.17,0.4c-0.11,0.08-0.32,0.12-0.61,0.12
					h-1.61c-0.31,0-0.51-0.04-0.6-0.11c-0.09-0.07-0.13-0.21-0.13-0.41c0-0.19,0.05-0.32,0.15-0.39s0.3-0.11,0.58-0.11h0.26v-3.03
					c0-0.57-0.13-1-0.39-1.3c-0.26-0.3-0.63-0.45-1.12-0.45c-0.5,0-0.93,0.17-1.31,0.5c-0.38,0.33-0.57,0.75-0.57,1.24v3.03h0.25
					c0.29,0,0.49,0.04,0.59,0.11c0.1,0.07,0.15,0.2,0.15,0.39c0,0.2-0.04,0.34-0.13,0.41s-0.3,0.11-0.64,0.11h-1.32h-0.39
					c-0.2,0-0.35-0.04-0.45-0.13c-0.1-0.08-0.15-0.22-0.15-0.4c0-0.19,0.06-0.33,0.17-0.4s0.34-0.11,0.67-0.11H115.88z"/>
			</g>
			<g>
				<path class="st0" d="M133.4,117.34c0.24,0,0.41,0.04,0.52,0.12c0.11,0.08,0.16,0.21,0.16,0.39c0,0.17-0.05,0.3-0.15,0.38
					c-0.1,0.08-0.25,0.13-0.46,0.13h-2.95v2.43c0,0.8,0.1,1.32,0.31,1.57c0.21,0.25,0.56,0.38,1.06,0.38c0.44,0,0.97-0.13,1.59-0.39
					c0.62-0.26,1-0.39,1.14-0.39c0.14,0,0.25,0.05,0.35,0.15c0.1,0.1,0.14,0.22,0.14,0.36c0,0.16-0.06,0.3-0.18,0.42
					c-0.12,0.12-0.32,0.23-0.61,0.35c-0.48,0.19-0.9,0.33-1.28,0.41c-0.38,0.09-0.74,0.13-1.07,0.13c-0.57,0-1.04-0.09-1.43-0.27
					c-0.39-0.18-0.67-0.45-0.86-0.81c-0.1-0.17-0.17-0.37-0.21-0.6c-0.04-0.23-0.06-0.59-0.06-1.08v-0.23v-2.43h-1.24
					c-0.2,0-0.35-0.04-0.44-0.12c-0.09-0.08-0.14-0.21-0.14-0.39c0-0.2,0.06-0.33,0.19-0.41c0.13-0.07,0.4-0.11,0.81-0.11h0.82
					v-1.49v-0.39c0-0.21,0.04-0.36,0.13-0.46c0.09-0.1,0.23-0.15,0.42-0.15c0.21,0,0.36,0.06,0.44,0.18
					c0.08,0.12,0.12,0.4,0.12,0.83v1.48H133.4z"/>
			</g>
			<g>
				<path class="st0" d="M137.51,122.63v-7.45h-0.14c-0.33,0-0.56-0.04-0.68-0.12c-0.12-0.08-0.19-0.21-0.19-0.41
					c0-0.17,0.05-0.31,0.15-0.39c0.1-0.09,0.24-0.13,0.43-0.13h1.11c0.13,0,0.23,0.03,0.31,0.08c0.07,0.05,0.11,0.13,0.11,0.22v3.3
					c0.35-0.33,0.7-0.57,1.05-0.73c0.35-0.16,0.71-0.24,1.08-0.24c0.73,0,1.31,0.23,1.73,0.68c0.42,0.46,0.63,1.09,0.63,1.89v3.3
					h0.34c0.24,0,0.42,0.04,0.53,0.12c0.11,0.08,0.16,0.21,0.16,0.38c0,0.17-0.05,0.31-0.15,0.39c-0.1,0.09-0.24,0.13-0.44,0.13
					h-1.94c-0.23,0-0.38-0.04-0.46-0.11c-0.08-0.08-0.12-0.21-0.12-0.41c0-0.19,0.05-0.33,0.15-0.4c0.1-0.07,0.29-0.11,0.57-0.11
					H142v-3.03c0-0.57-0.13-1-0.39-1.3c-0.26-0.3-0.63-0.45-1.12-0.45c-0.5,0-0.94,0.17-1.32,0.5c-0.38,0.33-0.57,0.75-0.57,1.24
					v3.03h0.25c0.29,0,0.49,0.04,0.59,0.11c0.1,0.07,0.15,0.2,0.15,0.39c0,0.2-0.04,0.34-0.12,0.41c-0.08,0.08-0.23,0.11-0.46,0.11
					h-1.94c-0.19,0-0.33-0.04-0.43-0.13c-0.09-0.09-0.14-0.22-0.14-0.39c0-0.19,0.06-0.33,0.17-0.4s0.34-0.11,0.67-0.11H137.51z"/>
			</g>
			<g>
				<path class="st0" d="M146.43,120.62c0.04,0.7,0.28,1.24,0.71,1.62c0.43,0.38,1.03,0.57,1.78,0.57c0.57,0,1.19-0.15,1.86-0.45
					c0.67-0.3,1.07-0.45,1.22-0.45c0.15,0,0.27,0.05,0.36,0.14c0.1,0.09,0.15,0.21,0.15,0.34c0,0.14-0.05,0.27-0.15,0.39
					c-0.1,0.12-0.26,0.23-0.49,0.34c-0.49,0.24-0.99,0.42-1.5,0.54c-0.52,0.13-1.03,0.19-1.54,0.19c-1.11,0-1.99-0.32-2.66-0.96
					c-0.67-0.64-1-1.48-1-2.54c0-1.07,0.35-1.94,1.06-2.61c0.7-0.66,1.62-1,2.75-1c1.02,0,1.87,0.31,2.55,0.93
					c0.67,0.62,1.01,1.37,1.01,2.26c0,0.27-0.06,0.45-0.17,0.55c-0.11,0.09-0.42,0.14-0.93,0.14h-0.11H146.43z M146.47,119.66h4.74
					c-0.07-0.58-0.31-1.04-0.72-1.39c-0.41-0.35-0.91-0.53-1.51-0.53c-0.65,0-1.19,0.17-1.63,0.51
					C146.9,118.59,146.61,119.06,146.47,119.66z"/>
			</g>
			<g>
				<path class="st0" d="M158.43,117.74h0.49c0.29,0,0.49,0.04,0.6,0.12s0.17,0.21,0.17,0.39c0,0.2-0.05,0.34-0.15,0.41
					c-0.1,0.08-0.33,0.11-0.67,0.11h-1.59h-0.33c-0.18,0-0.31-0.04-0.4-0.13c-0.09-0.09-0.13-0.22-0.13-0.39
					c0-0.19,0.05-0.32,0.16-0.39c0.1-0.07,0.3-0.11,0.59-0.11h0.13v-6.56h-0.12c-0.29,0-0.49-0.04-0.6-0.12s-0.16-0.21-0.16-0.41
					c0-0.18,0.04-0.31,0.13-0.4c0.09-0.08,0.23-0.13,0.42-0.13h0.31h1.52c0.39,0,0.63,0.04,0.74,0.11s0.16,0.21,0.16,0.41
					c0,0.19-0.07,0.33-0.2,0.41c-0.13,0.08-0.38,0.12-0.74,0.12h-0.33v2.53h3.49v-2.53h-0.5c-0.28,0-0.47-0.04-0.59-0.12
					c-0.12-0.08-0.18-0.22-0.18-0.4c0-0.2,0.05-0.34,0.16-0.41c0.11-0.08,0.38-0.11,0.8-0.11h1.45h0.33c0.17,0,0.31,0.04,0.4,0.13
					c0.09,0.09,0.13,0.22,0.13,0.39c0,0.19-0.05,0.32-0.15,0.4c-0.1,0.08-0.28,0.12-0.55,0.12h-0.17v6.56h0.12
					c0.29,0,0.49,0.04,0.6,0.11c0.11,0.08,0.16,0.21,0.16,0.39c0,0.2-0.05,0.34-0.15,0.41c-0.1,0.08-0.34,0.11-0.71,0.11h-1.51
					c-0.39,0-0.64-0.04-0.75-0.11c-0.11-0.08-0.16-0.21-0.16-0.41c0-0.19,0.06-0.32,0.19-0.39c0.13-0.07,0.37-0.11,0.72-0.11h0.36
					v-3.03h-3.49V117.74z"/>
			</g>
			<g>
				<path class="st0" d="M169.2,117.74h2.34c0.19,0,0.33,0.04,0.42,0.12c0.09,0.08,0.13,0.21,0.13,0.38c0,0.2-0.04,0.34-0.13,0.41
					c-0.08,0.08-0.24,0.11-0.47,0.11h-5.64c-0.19,0-0.34-0.04-0.44-0.13c-0.1-0.09-0.15-0.22-0.15-0.39c0-0.17,0.05-0.3,0.15-0.38
					c0.1-0.08,0.25-0.12,0.46-0.12h2.22v-4.67h-1.42c-0.2,0-0.35-0.04-0.46-0.13c-0.11-0.09-0.16-0.22-0.16-0.39
					c0-0.17,0.05-0.3,0.15-0.38c0.1-0.08,0.24-0.13,0.44-0.13h2.13c0.13,0,0.23,0.03,0.31,0.08c0.08,0.05,0.11,0.13,0.11,0.22
					V117.74z M167.85,109.95c0-0.52,0.05-0.85,0.14-0.99c0.09-0.14,0.3-0.2,0.61-0.2c0.3,0,0.5,0.06,0.6,0.17
					c0.1,0.11,0.15,0.38,0.15,0.81c0,0.42-0.04,0.68-0.13,0.78c-0.09,0.1-0.29,0.15-0.61,0.15c-0.31,0-0.51-0.05-0.61-0.14
					C167.9,110.43,167.85,110.24,167.85,109.95z"/>
			</g>
			<g>
				<path class="st0" d="M179.24,118.38c0,0.68-0.03,1.16-0.1,1.44c-0.07,0.28-0.19,0.53-0.35,0.75c-0.27,0.36-0.66,0.63-1.15,0.82
					c-0.49,0.19-1.07,0.28-1.73,0.28c-0.55,0-0.96-0.05-1.21-0.16s-0.38-0.28-0.38-0.51c0-0.15,0.06-0.28,0.19-0.4
					c0.12-0.11,0.27-0.17,0.44-0.17c0.13,0,0.33,0.02,0.6,0.05c0.27,0.04,0.48,0.05,0.62,0.05c0.72,0,1.23-0.16,1.53-0.49
					c0.3-0.33,0.45-0.9,0.45-1.7v-0.88c-0.3,0.34-0.62,0.6-0.98,0.76c-0.36,0.16-0.77,0.24-1.24,0.24c-0.91,0-1.66-0.3-2.25-0.91
					c-0.59-0.6-0.89-1.37-0.89-2.3c0-0.93,0.31-1.7,0.92-2.32c0.61-0.61,1.37-0.92,2.27-0.92c0.37,0,0.74,0.07,1.1,0.21
					s0.72,0.35,1.08,0.63v-0.52c0-0.1,0.03-0.18,0.1-0.23c0.07-0.05,0.17-0.07,0.31-0.07h1.1c0.19,0,0.34,0.04,0.44,0.13
					c0.1,0.08,0.15,0.21,0.15,0.38c0,0.19-0.06,0.33-0.18,0.41c-0.12,0.08-0.35,0.12-0.68,0.12h-0.13V118.38z M176.07,113.12
					c-0.64,0-1.15,0.2-1.56,0.59c-0.4,0.39-0.6,0.9-0.6,1.53c0,0.62,0.2,1.12,0.6,1.52c0.4,0.4,0.92,0.59,1.56,0.59
					c0.63,0,1.15-0.2,1.55-0.59c0.41-0.4,0.61-0.9,0.61-1.52c0-0.62-0.2-1.12-0.61-1.52C177.22,113.32,176.7,113.12,176.07,113.12z"
					/>
			</g>
			<g>
				<path class="st0" d="M182.19,117.74v-7.45h-0.14c-0.33,0-0.56-0.04-0.68-0.12c-0.12-0.08-0.19-0.21-0.19-0.41
					c0-0.17,0.05-0.31,0.15-0.39c0.1-0.09,0.24-0.13,0.43-0.13h1.11c0.13,0,0.23,0.03,0.31,0.08c0.07,0.05,0.11,0.13,0.11,0.22v3.3
					c0.35-0.33,0.7-0.57,1.05-0.73c0.35-0.16,0.71-0.24,1.08-0.24c0.73,0,1.31,0.23,1.73,0.68c0.42,0.46,0.63,1.09,0.63,1.89v3.3
					h0.34c0.24,0,0.42,0.04,0.53,0.12c0.11,0.08,0.16,0.21,0.16,0.38c0,0.17-0.05,0.31-0.15,0.39c-0.1,0.09-0.24,0.13-0.44,0.13
					h-1.94c-0.23,0-0.38-0.04-0.46-0.11c-0.08-0.08-0.12-0.21-0.12-0.41c0-0.19,0.05-0.33,0.15-0.4s0.29-0.11,0.57-0.11h0.26v-3.03
					c0-0.57-0.13-1-0.39-1.3c-0.26-0.3-0.63-0.45-1.12-0.45c-0.5,0-0.94,0.17-1.32,0.5c-0.38,0.33-0.57,0.75-0.57,1.24v3.03h0.25
					c0.29,0,0.49,0.04,0.59,0.11c0.1,0.07,0.15,0.2,0.15,0.39c0,0.2-0.04,0.34-0.12,0.41c-0.08,0.08-0.23,0.11-0.46,0.11h-1.94
					c-0.19,0-0.33-0.04-0.43-0.13c-0.09-0.09-0.14-0.22-0.14-0.39c0-0.19,0.06-0.33,0.17-0.4s0.34-0.11,0.67-0.11H182.19z"/>
			</g>
			<g>
				<path class="st0" d="M190.81,115.73c0.04,0.7,0.28,1.24,0.71,1.62c0.43,0.38,1.03,0.57,1.78,0.57c0.57,0,1.19-0.15,1.86-0.45
					c0.67-0.3,1.07-0.45,1.22-0.45c0.15,0,0.27,0.05,0.36,0.14c0.1,0.09,0.15,0.21,0.15,0.34c0,0.14-0.05,0.27-0.15,0.39
					c-0.1,0.12-0.26,0.23-0.49,0.34c-0.49,0.24-0.99,0.42-1.5,0.54c-0.52,0.13-1.03,0.19-1.54,0.19c-1.11,0-1.99-0.32-2.66-0.96
					c-0.67-0.64-1-1.48-1-2.54c0-1.07,0.35-1.94,1.06-2.61c0.7-0.66,1.62-1,2.75-1c1.02,0,1.87,0.31,2.55,0.93
					c0.67,0.62,1.01,1.37,1.01,2.26c0,0.27-0.06,0.45-0.17,0.55c-0.11,0.09-0.42,0.14-0.93,0.14h-0.11H190.81z M190.85,114.77h4.74
					c-0.07-0.58-0.31-1.04-0.72-1.39c-0.41-0.35-0.91-0.53-1.51-0.53c-0.65,0-1.19,0.17-1.63,0.51
					C191.28,113.7,190.99,114.17,190.85,114.77z"/>
			</g>
			<g>
				<path class="st0" d="M198.31,118.25v-1.3c0-0.21,0.04-0.37,0.12-0.46c0.08-0.09,0.21-0.14,0.39-0.14c0.2,0,0.36,0.14,0.47,0.41
					c0.08,0.17,0.15,0.29,0.21,0.37c0.2,0.26,0.5,0.47,0.9,0.63c0.4,0.16,0.84,0.24,1.32,0.24c0.51,0,0.93-0.1,1.24-0.31
					c0.31-0.21,0.47-0.48,0.47-0.82c0-0.34-0.13-0.59-0.38-0.74c-0.25-0.15-0.68-0.22-1.28-0.22h-0.4c-0.99,0-1.74-0.17-2.26-0.52
					c-0.52-0.34-0.78-0.84-0.78-1.5c0-0.64,0.25-1.14,0.76-1.49c0.51-0.35,1.22-0.53,2.14-0.53c0.37,0,0.75,0.05,1.14,0.16
					c0.39,0.1,0.59,0.16,0.61,0.16c0.05,0,0.16-0.05,0.31-0.14c0.15-0.09,0.3-0.14,0.44-0.14c0.16,0,0.29,0.06,0.37,0.18
					c0.08,0.12,0.12,0.3,0.12,0.55v0.85c0,0.26-0.04,0.44-0.12,0.56c-0.08,0.11-0.2,0.17-0.37,0.17c-0.15,0-0.33-0.12-0.54-0.37
					c-0.15-0.17-0.27-0.3-0.37-0.39c-0.26-0.24-0.53-0.41-0.82-0.51c-0.29-0.1-0.63-0.16-1.03-0.16c-0.46,0-0.82,0.1-1.1,0.3
					c-0.28,0.2-0.42,0.46-0.42,0.77c0,0.31,0.14,0.52,0.43,0.66c0.29,0.13,0.9,0.21,1.85,0.23c1.01,0.02,1.75,0.2,2.21,0.53
					c0.47,0.33,0.7,0.83,0.7,1.52c0,0.66-0.26,1.18-0.77,1.57c-0.51,0.39-1.21,0.59-2.08,0.59c-0.28,0-0.58-0.03-0.92-0.08
					c-0.34-0.05-0.77-0.14-1.28-0.26c-0.17,0.11-0.32,0.2-0.44,0.25c-0.12,0.06-0.22,0.08-0.31,0.08c-0.17,0-0.3-0.06-0.39-0.18
					C198.35,118.64,198.31,118.47,198.31,118.25z"/>
			</g>
			<g>
				<path class="st0" d="M211.41,112.45c0.24,0,0.41,0.04,0.52,0.12s0.16,0.21,0.16,0.39c0,0.17-0.05,0.3-0.15,0.38
					c-0.1,0.08-0.25,0.13-0.46,0.13h-2.95v2.43c0,0.8,0.1,1.32,0.31,1.57s0.56,0.38,1.06,0.38c0.44,0,0.97-0.13,1.59-0.39
					c0.62-0.26,1-0.39,1.14-0.39c0.14,0,0.25,0.05,0.35,0.15c0.1,0.1,0.14,0.22,0.14,0.36c0,0.16-0.06,0.3-0.18,0.42
					c-0.12,0.12-0.32,0.23-0.61,0.35c-0.48,0.19-0.9,0.33-1.28,0.41c-0.38,0.09-0.74,0.13-1.07,0.13c-0.57,0-1.04-0.09-1.43-0.27
					c-0.39-0.18-0.67-0.45-0.86-0.81c-0.1-0.17-0.17-0.37-0.21-0.6c-0.04-0.23-0.06-0.59-0.06-1.08v-0.23v-2.43h-1.24
					c-0.2,0-0.35-0.04-0.44-0.12c-0.09-0.08-0.14-0.21-0.14-0.39c0-0.2,0.06-0.33,0.19-0.41c0.13-0.07,0.4-0.11,0.81-0.11h0.82
					v-1.49v-0.39c0-0.21,0.04-0.36,0.13-0.46c0.09-0.1,0.23-0.15,0.42-0.15c0.21,0,0.36,0.06,0.44,0.18
					c0.08,0.12,0.12,0.4,0.12,0.83v1.48H211.41z"/>
			</g>
			<g>
				<path class="st0" d="M219.7,123.66h-1.15h-0.33c-0.18,0-0.31-0.04-0.4-0.13c-0.09-0.09-0.13-0.22-0.13-0.39
					c0-0.19,0.05-0.32,0.16-0.39c0.1-0.07,0.3-0.11,0.59-0.11h0.13v-6.56h-0.12c-0.29,0-0.49-0.04-0.6-0.12
					c-0.11-0.08-0.16-0.21-0.16-0.41c0-0.18,0.04-0.31,0.13-0.4c0.09-0.08,0.23-0.13,0.42-0.13h0.31h1.15h1.61
					c1.21,0,2.17,0.39,2.89,1.17c0.72,0.78,1.08,1.83,1.08,3.16c0,0.65-0.1,1.24-0.31,1.8c-0.21,0.55-0.51,1.04-0.9,1.46
					c-0.36,0.38-0.81,0.65-1.33,0.83c-0.52,0.17-1.19,0.26-2.01,0.26c-0.1,0-0.26-0.01-0.49-0.01
					C220,123.66,219.82,123.66,219.7,123.66z M219.7,122.63c0.16,0.01,0.31,0.03,0.46,0.03c0.15,0.01,0.3,0.01,0.45,0.01
					c1.19,0,2.07-0.27,2.62-0.8c0.56-0.53,0.83-1.38,0.83-2.53c0-1.15-0.28-2-0.84-2.52c-0.56-0.53-1.45-0.79-2.68-0.79
					c-0.23,0-0.4,0-0.52,0.01c-0.12,0-0.23,0.01-0.33,0.03V122.63z"/>
			</g>
			<g>
				<path class="st0" d="M227.33,120.62c0.04,0.7,0.28,1.24,0.71,1.62c0.43,0.38,1.03,0.57,1.78,0.57c0.57,0,1.19-0.15,1.86-0.45
					c0.67-0.3,1.07-0.45,1.22-0.45c0.15,0,0.27,0.05,0.36,0.14c0.1,0.09,0.15,0.21,0.15,0.34c0,0.14-0.05,0.27-0.15,0.39
					c-0.1,0.12-0.26,0.23-0.49,0.34c-0.49,0.24-0.99,0.42-1.5,0.54c-0.52,0.13-1.03,0.19-1.54,0.19c-1.11,0-1.99-0.32-2.66-0.96
					c-0.67-0.64-1-1.48-1-2.54c0-1.07,0.35-1.94,1.06-2.61c0.7-0.66,1.62-1,2.75-1c1.02,0,1.87,0.31,2.55,0.93
					c0.67,0.62,1.01,1.37,1.01,2.26c0,0.27-0.06,0.45-0.17,0.55c-0.11,0.09-0.42,0.14-0.93,0.14h-0.11H227.33z M227.36,119.66h4.74
					c-0.07-0.58-0.31-1.04-0.72-1.39c-0.41-0.35-0.91-0.53-1.51-0.53c-0.65,0-1.19,0.17-1.63,0.51
					C227.8,118.59,227.5,119.06,227.36,119.66z"/>
			</g>
			<g>
				<path class="st0" d="M234.82,123.13v-1.3c0-0.21,0.04-0.37,0.12-0.46c0.08-0.09,0.21-0.14,0.39-0.14c0.2,0,0.36,0.14,0.47,0.41
					c0.08,0.17,0.15,0.29,0.21,0.37c0.2,0.26,0.5,0.47,0.9,0.63c0.4,0.16,0.84,0.24,1.32,0.24c0.51,0,0.93-0.1,1.24-0.31
					c0.31-0.21,0.47-0.48,0.47-0.82c0-0.34-0.13-0.59-0.38-0.74c-0.25-0.15-0.68-0.22-1.28-0.22h-0.4c-0.99,0-1.74-0.17-2.26-0.52
					c-0.52-0.34-0.78-0.84-0.78-1.5c0-0.64,0.25-1.14,0.76-1.49c0.51-0.35,1.22-0.53,2.14-0.53c0.37,0,0.75,0.05,1.14,0.16
					c0.39,0.1,0.59,0.16,0.61,0.16c0.05,0,0.16-0.05,0.31-0.14c0.15-0.09,0.3-0.14,0.44-0.14c0.16,0,0.29,0.06,0.37,0.18
					c0.08,0.12,0.12,0.3,0.12,0.55v0.85c0,0.26-0.04,0.44-0.12,0.56c-0.08,0.11-0.2,0.17-0.37,0.17c-0.15,0-0.33-0.12-0.54-0.37
					c-0.15-0.17-0.27-0.3-0.37-0.39c-0.26-0.24-0.53-0.41-0.82-0.51c-0.29-0.1-0.63-0.16-1.03-0.16c-0.46,0-0.82,0.1-1.1,0.3
					c-0.28,0.2-0.42,0.46-0.42,0.77c0,0.31,0.14,0.52,0.43,0.66c0.29,0.13,0.9,0.21,1.85,0.23c1.01,0.02,1.75,0.2,2.21,0.53
					c0.47,0.33,0.7,0.83,0.7,1.52c0,0.66-0.26,1.18-0.77,1.57c-0.51,0.39-1.21,0.59-2.08,0.59c-0.28,0-0.58-0.03-0.92-0.08
					c-0.34-0.05-0.77-0.14-1.28-0.26c-0.17,0.11-0.32,0.2-0.44,0.25c-0.12,0.06-0.22,0.08-0.31,0.08c-0.17,0-0.3-0.06-0.39-0.18
					C234.87,123.53,234.82,123.36,234.82,123.13z"/>
			</g>
			<g>
				<path class="st0" d="M246.57,122.63h2.34c0.19,0,0.33,0.04,0.42,0.12c0.09,0.08,0.13,0.21,0.13,0.38c0,0.2-0.04,0.34-0.13,0.41
					c-0.08,0.08-0.24,0.11-0.47,0.11h-5.64c-0.19,0-0.34-0.04-0.44-0.13c-0.1-0.09-0.15-0.22-0.15-0.39c0-0.17,0.05-0.3,0.15-0.38
					c0.1-0.08,0.25-0.12,0.46-0.12h2.22v-4.67h-1.42c-0.2,0-0.35-0.04-0.46-0.13c-0.11-0.09-0.16-0.22-0.16-0.39
					c0-0.17,0.05-0.3,0.15-0.38c0.1-0.08,0.24-0.13,0.44-0.13h2.13c0.13,0,0.23,0.03,0.31,0.08c0.08,0.05,0.11,0.13,0.11,0.22
					V122.63z M245.22,114.84c0-0.52,0.05-0.85,0.14-0.99c0.09-0.14,0.3-0.2,0.61-0.2c0.3,0,0.5,0.06,0.6,0.17
					c0.1,0.11,0.15,0.38,0.15,0.81c0,0.42-0.04,0.68-0.13,0.78c-0.09,0.1-0.29,0.15-0.61,0.15c-0.31,0-0.51-0.05-0.61-0.14
					C245.27,115.32,245.22,115.13,245.22,114.84z"/>
			</g>
			<g>
				<path class="st0" d="M256.61,123.27c0,0.68-0.03,1.16-0.1,1.44c-0.07,0.28-0.19,0.53-0.35,0.75c-0.27,0.36-0.66,0.63-1.15,0.82
					c-0.49,0.19-1.07,0.28-1.73,0.28c-0.55,0-0.96-0.05-1.21-0.16c-0.25-0.11-0.38-0.28-0.38-0.51c0-0.15,0.06-0.28,0.19-0.4
					c0.12-0.11,0.27-0.17,0.44-0.17c0.13,0,0.33,0.02,0.6,0.05c0.27,0.04,0.48,0.05,0.62,0.05c0.72,0,1.23-0.16,1.53-0.49
					c0.3-0.33,0.45-0.9,0.45-1.7v-0.88c-0.3,0.34-0.62,0.6-0.98,0.76c-0.36,0.16-0.77,0.24-1.24,0.24c-0.91,0-1.66-0.3-2.25-0.91
					c-0.59-0.6-0.89-1.37-0.89-2.3c0-0.93,0.31-1.7,0.92-2.32c0.61-0.61,1.37-0.92,2.27-0.92c0.37,0,0.74,0.07,1.1,0.21
					c0.36,0.14,0.72,0.35,1.08,0.63v-0.52c0-0.1,0.03-0.18,0.1-0.23c0.07-0.05,0.17-0.07,0.31-0.07h1.1c0.19,0,0.34,0.04,0.44,0.13
					c0.1,0.08,0.15,0.21,0.15,0.38c0,0.19-0.06,0.33-0.18,0.41c-0.12,0.08-0.35,0.12-0.68,0.12h-0.13V123.27z M253.44,118.01
					c-0.64,0-1.15,0.2-1.56,0.59c-0.4,0.39-0.6,0.9-0.6,1.53c0,0.62,0.2,1.12,0.6,1.52c0.4,0.4,0.92,0.59,1.56,0.59
					c0.63,0,1.15-0.2,1.55-0.59c0.41-0.4,0.61-0.9,0.61-1.52c0-0.62-0.2-1.12-0.61-1.52C254.59,118.21,254.07,118.01,253.44,118.01z
					"/>
			</g>
			<g>
				<path class="st0" d="M259.88,122.63v-4.67h-0.14c-0.33,0-0.56-0.04-0.68-0.12c-0.12-0.08-0.19-0.21-0.19-0.41
					c0-0.18,0.05-0.31,0.15-0.39c0.1-0.08,0.27-0.12,0.49-0.12h0.34h0.7c0.13,0,0.23,0.03,0.31,0.08c0.07,0.05,0.11,0.13,0.11,0.22
					v0.49c0.35-0.33,0.7-0.57,1.05-0.73c0.35-0.16,0.71-0.24,1.08-0.24c0.73,0,1.31,0.23,1.73,0.68c0.42,0.46,0.63,1.09,0.63,1.89
					v3.3h0.34c0.24,0,0.42,0.04,0.53,0.12c0.11,0.08,0.16,0.21,0.16,0.38c0,0.19-0.06,0.32-0.17,0.4c-0.11,0.08-0.32,0.12-0.61,0.12
					h-1.61c-0.31,0-0.51-0.04-0.6-0.11c-0.09-0.07-0.13-0.21-0.13-0.41c0-0.19,0.05-0.32,0.15-0.39c0.1-0.07,0.3-0.11,0.58-0.11
					h0.26v-3.03c0-0.57-0.13-1-0.39-1.3c-0.26-0.3-0.63-0.45-1.12-0.45c-0.5,0-0.93,0.17-1.31,0.5c-0.38,0.33-0.57,0.75-0.57,1.24
					v3.03h0.25c0.29,0,0.49,0.04,0.59,0.11c0.1,0.07,0.15,0.2,0.15,0.39c0,0.2-0.04,0.34-0.13,0.41s-0.3,0.11-0.64,0.11h-1.32h-0.39
					c-0.2,0-0.35-0.04-0.45-0.13c-0.1-0.08-0.15-0.22-0.15-0.4c0-0.19,0.06-0.33,0.17-0.4s0.34-0.11,0.67-0.11H259.88z"/>
			</g>
			<g>
				<path class="st0" d="M273.29,123.4c-0.02,0.22-0.08,0.37-0.17,0.45c-0.09,0.08-0.23,0.13-0.41,0.13c-0.2,0-0.36-0.06-0.45-0.18
					c-0.1-0.12-0.16-0.31-0.17-0.58l-0.09-1.69v-0.13c0-0.23,0.04-0.4,0.13-0.49c0.09-0.1,0.24-0.15,0.45-0.15
					c0.29,0,0.5,0.21,0.63,0.63c0.06,0.21,0.11,0.37,0.17,0.47c0.17,0.34,0.44,0.6,0.8,0.79c0.37,0.18,0.8,0.28,1.31,0.28
					c0.63,0,1.13-0.15,1.52-0.44s0.59-0.67,0.59-1.14c0-0.38-0.12-0.69-0.36-0.92c-0.24-0.23-0.59-0.38-1.05-0.45l-1.08-0.15
					c-1-0.14-1.74-0.41-2.2-0.79c-0.46-0.39-0.69-0.93-0.69-1.64c0-0.74,0.31-1.37,0.92-1.87s1.38-0.76,2.3-0.76
					c0.27,0,0.55,0.04,0.84,0.11c0.3,0.07,0.63,0.18,1,0.33c0.01-0.14,0.05-0.24,0.12-0.29c0.07-0.05,0.18-0.08,0.35-0.08
					c0.21,0,0.36,0.03,0.44,0.09c0.08,0.06,0.13,0.21,0.15,0.45l0.1,1.52v0.07c0,0.17-0.05,0.3-0.15,0.4
					c-0.1,0.09-0.23,0.14-0.41,0.14c-0.26,0-0.46-0.18-0.6-0.54c-0.07-0.2-0.14-0.36-0.2-0.46c-0.16-0.24-0.39-0.43-0.69-0.56
					c-0.3-0.13-0.64-0.2-1.03-0.2c-0.59,0-1.06,0.15-1.43,0.44c-0.37,0.29-0.55,0.67-0.55,1.14c0,0.37,0.14,0.66,0.41,0.87
					c0.27,0.21,0.69,0.36,1.26,0.44l1.16,0.15c0.84,0.11,1.48,0.37,1.91,0.78c0.43,0.41,0.64,0.95,0.64,1.64
					c0,0.82-0.3,1.47-0.91,1.96c-0.61,0.49-1.42,0.74-2.43,0.74c-0.35,0-0.7-0.04-1.04-0.12
					C274.04,123.71,273.67,123.58,273.29,123.4z"/>
			</g>
			<g>
				<path class="st0" d="M285.26,117.34c0.24,0,0.41,0.04,0.52,0.12c0.11,0.08,0.16,0.21,0.16,0.39c0,0.17-0.05,0.3-0.15,0.38
					c-0.1,0.08-0.25,0.13-0.46,0.13h-2.95v2.43c0,0.8,0.1,1.32,0.31,1.57c0.21,0.25,0.56,0.38,1.06,0.38c0.44,0,0.97-0.13,1.59-0.39
					c0.62-0.26,1-0.39,1.14-0.39c0.14,0,0.25,0.05,0.35,0.15c0.1,0.1,0.14,0.22,0.14,0.36c0,0.16-0.06,0.3-0.18,0.42
					c-0.12,0.12-0.32,0.23-0.61,0.35c-0.48,0.19-0.9,0.33-1.28,0.41c-0.38,0.09-0.74,0.13-1.07,0.13c-0.57,0-1.04-0.09-1.43-0.27
					c-0.39-0.18-0.67-0.45-0.86-0.81c-0.1-0.17-0.17-0.37-0.21-0.6c-0.04-0.23-0.06-0.59-0.06-1.08v-0.23v-2.43h-1.24
					c-0.2,0-0.35-0.04-0.44-0.12c-0.09-0.08-0.14-0.21-0.14-0.39c0-0.2,0.06-0.33,0.19-0.41c0.13-0.07,0.4-0.11,0.81-0.11h0.82
					v-1.49v-0.39c0-0.21,0.04-0.36,0.13-0.46c0.09-0.1,0.23-0.15,0.42-0.15c0.21,0,0.36,0.06,0.44,0.18
					c0.08,0.12,0.12,0.4,0.12,0.83v1.48H285.26z"/>
			</g>
			<g>
				<path class="st0" d="M289.51,120.97c0,0.61,0.13,1.06,0.39,1.34c0.26,0.28,0.66,0.42,1.22,0.42c0.53,0,0.98-0.17,1.36-0.5
					c0.38-0.34,0.56-0.76,0.56-1.26v-3.01h-1c-0.19,0-0.33-0.04-0.41-0.12c-0.08-0.08-0.13-0.2-0.13-0.37c0-0.18,0.05-0.32,0.14-0.4
					c0.09-0.09,0.24-0.13,0.44-0.13h1.55c0.18,0,0.31,0.04,0.39,0.12c0.07,0.08,0.11,0.28,0.11,0.59v4.99h0.33
					c0.24,0,0.41,0.04,0.51,0.12c0.1,0.08,0.16,0.21,0.16,0.39c0,0.17-0.05,0.31-0.15,0.39c-0.1,0.09-0.24,0.13-0.43,0.13h-1.11
					c-0.13,0-0.23-0.03-0.31-0.08c-0.07-0.05-0.11-0.13-0.11-0.22v-0.5c-0.47,0.36-0.87,0.61-1.2,0.74c-0.33,0.13-0.68,0.2-1.05,0.2
					c-0.8,0-1.4-0.21-1.8-0.64c-0.4-0.42-0.6-1.07-0.6-1.93v-3.28h-0.15c-0.33,0-0.56-0.04-0.68-0.12c-0.12-0.08-0.18-0.21-0.18-0.4
					c0-0.17,0.05-0.3,0.14-0.38c0.09-0.08,0.24-0.13,0.44-0.13h1.1c0.17,0,0.29,0.03,0.35,0.1s0.1,0.22,0.1,0.45V120.97z"/>
			</g>
			<g>
				<path class="st0" d="M301.64,123.66c-0.1,0-0.17-0.03-0.21-0.08c-0.04-0.05-0.06-0.15-0.06-0.29v-0.6
					c-0.29,0.36-0.66,0.65-1.09,0.85c-0.44,0.2-0.91,0.3-1.42,0.3c-0.92,0-1.69-0.33-2.3-0.98c-0.62-0.65-0.93-1.46-0.93-2.43
					c0-1,0.33-1.84,0.99-2.51c0.66-0.67,1.48-1,2.47-1c0.5,0,0.95,0.09,1.35,0.27c0.4,0.18,0.74,0.44,1.03,0.78v-2.79h-0.39
					c-0.42,0-0.7-0.04-0.82-0.11s-0.19-0.21-0.19-0.41c0-0.17,0.05-0.31,0.15-0.39c0.1-0.09,0.24-0.13,0.43-0.13h1.49
					c0.15,0,0.25,0.02,0.32,0.07c0.07,0.05,0.1,0.12,0.1,0.23v8.2h0.33c0.24,0,0.41,0.04,0.52,0.12c0.11,0.08,0.16,0.21,0.16,0.38
					c0,0.16-0.05,0.29-0.14,0.39c-0.09,0.09-0.22,0.14-0.37,0.14H301.64z M296.87,120.39c0,0.67,0.22,1.22,0.65,1.64
					c0.43,0.43,0.98,0.64,1.64,0.64c0.67,0,1.22-0.22,1.65-0.67c0.43-0.44,0.65-1.01,0.65-1.69c0-0.67-0.21-1.23-0.64-1.67
					c-0.43-0.44-0.98-0.66-1.66-0.66c-0.68,0-1.24,0.22-1.66,0.66C297.08,119.1,296.87,119.68,296.87,120.39z"/>
			</g>
			<g>
				<path class="st0" d="M309.07,122.63h2.34c0.19,0,0.33,0.04,0.42,0.12c0.09,0.08,0.13,0.21,0.13,0.38c0,0.2-0.04,0.34-0.13,0.41
					c-0.08,0.08-0.24,0.11-0.47,0.11h-5.64c-0.19,0-0.34-0.04-0.44-0.13s-0.15-0.22-0.15-0.39c0-0.17,0.05-0.3,0.15-0.38
					c0.1-0.08,0.25-0.12,0.46-0.12h2.22v-4.67h-1.42c-0.2,0-0.35-0.04-0.46-0.13c-0.11-0.09-0.16-0.22-0.16-0.39
					c0-0.17,0.05-0.3,0.15-0.38c0.1-0.08,0.24-0.13,0.44-0.13h2.13c0.13,0,0.23,0.03,0.31,0.08c0.08,0.05,0.11,0.13,0.11,0.22
					V122.63z M307.72,114.84c0-0.52,0.05-0.85,0.14-0.99c0.09-0.14,0.3-0.2,0.61-0.2c0.3,0,0.5,0.06,0.6,0.17
					c0.1,0.11,0.15,0.38,0.15,0.81c0,0.42-0.04,0.68-0.13,0.78c-0.09,0.1-0.29,0.15-0.61,0.15c-0.31,0-0.51-0.05-0.61-0.14
					C307.77,115.32,307.72,115.13,307.72,114.84z"/>
			</g>
			<g>
				<path class="st0" d="M320.4,120.3c0,1.04-0.35,1.89-1.06,2.55c-0.71,0.66-1.63,0.99-2.76,0.99c-1.13,0-2.04-0.33-2.75-0.99
					c-0.71-0.66-1.06-1.51-1.06-2.55c0-1.04,0.35-1.89,1.06-2.54c0.71-0.66,1.63-0.99,2.75-0.99c1.13,0,2.04,0.33,2.75,0.99
					C320.04,118.42,320.4,119.27,320.4,120.3z M316.58,122.81c0.75,0,1.36-0.24,1.84-0.71c0.48-0.47,0.72-1.07,0.72-1.81
					c0-0.73-0.24-1.34-0.72-1.81c-0.48-0.48-1.09-0.72-1.83-0.72s-1.35,0.24-1.83,0.72c-0.48,0.48-0.72,1.08-0.72,1.81
					c0,0.74,0.24,1.34,0.71,1.81C315.22,122.58,315.83,122.81,316.58,122.81z"/>
			</g>
		</g>
		<g>
			<g>
				<path class="st0" d="M213.12,121.41c0,0.07-0.05,0.12-0.14,0.17c-0.09,0.05-0.21,0.07-0.34,0.07H198.8
					c-0.14,0-0.25-0.02-0.34-0.07c-0.09-0.05-0.14-0.1-0.14-0.17v-0.4c0-0.07,0.05-0.12,0.14-0.16c0.09-0.04,0.21-0.06,0.34-0.06
					h13.84c0.14,0,0.25,0.02,0.34,0.06c0.09,0.04,0.14,0.1,0.14,0.16V121.41z"/>
			</g>
		</g>
	</g>
	<g>
		
			<rect x="68.41" y="21.36" transform="matrix(0.0683 -0.9977 0.9977 0.0683 57.2554 104.593)" class="st0" width="32.44" height="0.56"/>
	</g>
	<g>
		
			<rect x="104.35" y="36.95" transform="matrix(0.7533 -0.6577 0.6577 0.7533 5.2056 88.331)" class="st0" width="31.98" height="0.56"/>
	</g>
	<g>
		
			<rect x="87.61" y="25.68" transform="matrix(0.4433 -0.8964 0.8964 0.4433 34.4302 107.3581)" class="st0" width="32.08" height="0.56"/>
	</g>
	<g>
		<g>
			<g>
				<path class="st1" d="M170.67,93.82v-3.5c-0.7,0.52-1.57,1.22-3.32,2.1c-1.92,0.96-6.03,2.45-11.71,2.45c-1.14,0-4.2,0-7.25-1.14
					c-5.86-2.27-9-7.34-9-13.46c0-2.45,0.52-7.87,6.21-11.71c3.76-2.53,8.57-3.15,12.94-3.76c2.53-0.35,5.24-0.7,7.78-1.22
					c1.14-0.26,2.36-0.52,3.5-0.87c0-0.17,0-1.4-0.26-2.1c-0.52-1.84-1.84-3.15-5.86-3.15c-1.31,0-2.19,0.17-2.62,0.26
					c-2.8,0.7-3.06,3.06-3.32,4.02l-16.87,0.44c0.17-0.96,0.44-1.84,0.61-2.71c0.44-1.75,1.4-4.89,4.98-7.69
					c3.58-2.8,9.09-4.72,18.88-4.72c7.08,0,16.69,1.14,20.19,8.48c0.96,2.01,1.31,3.85,1.31,8.04v24.65c0,3.32,0.44,4.02,1.57,5.59
					H170.67z M162.9,74.85c-1.92,0.44-4.63,1.05-6.03,2.8c-0.17,0.26-0.79,1.05-0.79,2.1c0,1.4,1.14,3.5,4.46,3.5
					c1.57,0,2.97-0.52,4.37-1.22c5.07-2.71,4.81-7.17,4.81-9.26C167.44,73.54,165.17,74.24,162.9,74.85z"/>
			</g>
		</g>
	</g>
	<g>
		<g>
			<g>
				<path class="st2" d="M301.05,92.15v-3.5c-0.7,0.52-1.57,1.22-3.32,2.1c-1.92,0.96-6.03,2.45-11.71,2.45c-1.14,0-4.2,0-7.25-1.14
					c-5.86-2.27-9-7.34-9-13.46c0-2.45,0.52-7.87,6.21-11.71c3.76-2.53,8.57-3.15,12.94-3.76c2.53-0.35,5.24-0.7,7.78-1.22
					c1.14-0.26,2.36-0.52,3.5-0.87c0-0.17,0-1.4-0.26-2.1c-0.52-1.84-1.84-3.15-5.86-3.15c-1.31,0-2.19,0.17-2.62,0.26
					c-2.8,0.7-3.06,3.06-3.32,4.02l-16.87,0.44c0.17-0.96,0.44-1.84,0.61-2.71c0.44-1.75,1.4-4.89,4.98-7.69
					c3.58-2.8,9.09-4.72,18.88-4.72c7.08,0,16.69,1.14,20.19,8.48c0.96,2.01,1.31,3.85,1.31,8.04v24.65c0,3.32,0.44,4.02,1.57,5.59
					H301.05z M293.27,73.18c-1.92,0.44-4.63,1.05-6.03,2.8c-0.17,0.26-0.79,1.05-0.79,2.1c0,1.4,1.14,3.5,4.46,3.5
					c1.57,0,2.97-0.52,4.37-1.22c5.07-2.71,4.81-7.17,4.81-9.26C297.81,71.87,295.54,72.57,293.27,73.18z"/>
			</g>
		</g>
	</g>
	<g>
		<g>
			<g>
				<path class="st2" d="M100.12,85.41c-3.15,3.5-9.88,8.04-21.15,8.04c-2.62,0-10.75-0.09-17.39-5.33
					c-3.32-2.62-8.39-8.39-8.39-18.7c0-6.29,1.92-12.5,6.21-17.13c3.06-3.32,9.53-7.87,20.54-7.78c2.36,0,11.71,0.26,18.44,6.12
					c5.07,4.46,7.6,11.8,7.6,18.53C105.98,71.6,105.54,79.38,100.12,85.41z M82.38,57.61c-1.31-0.44-2.45-0.44-2.97-0.44
					c-3.15,0.09-4.89,1.66-5.68,2.53c-1.4,1.49-2.62,4.55-2.62,9.18c0,4.46,1.14,7.52,2.27,9.09c0.7,0.96,1.66,1.75,2.71,2.18
					c0.52,0.26,1.84,0.61,3.41,0.61c2.1,0,4.02-0.61,5.42-2.01c1.57-1.57,2.88-4.98,2.88-10.05C87.8,61.9,85.61,58.75,82.38,57.61z"
					/>
			</g>
		</g>
	</g>
	<g>
		<g>
			<g>
				<path class="st3" d="M213.21,93.82V69.08c0-1.05,0-2.01-0.26-3.06c-0.44-1.57-1.75-3.76-5.86-3.76c-6.64,0-6.56,5.51-6.56,7.43
					v24.12h-17.92V48.54h16.96v6.03c1.14-1.66,1.31-1.84,2.18-2.71c3.32-3.32,8.13-4.54,12.76-4.54c1.66,0,7.25,0.09,11.54,3.76
					c2.36,1.92,3.85,4.89,4.55,7.87c0.35,1.49,0.61,3.06,0.61,6.29v28.58H213.21z"/>
			</g>
		</g>
	</g>
	<g>
		<g>
			<g>
				<path class="st1" d="M256.71,104.38V79.64c0-1.05,0-2.01-0.26-3.06c-0.44-1.57-1.75-3.76-5.86-3.76c-6.64,0-6.56,5.51-6.56,7.43
					v24.12h-17.92V59.1h16.96v6.03c1.14-1.66,1.31-1.84,2.18-2.71c3.32-3.32,8.13-4.54,12.76-4.54c1.66,0,7.25,0.09,11.54,3.76
					c2.36,1.92,3.85,4.89,4.55,7.87c0.35,1.49,0.61,3.06,0.61,6.29v28.58H256.71z"/>
			</g>
		</g>
	</g>
	<g>
		<g>
			<g>
				<path class="st3" d="M142.97,94.5c-5.16,9.35-17.22,9.53-19.67,9.53c-6.73,0-13.63-1.92-19.32-5.51
					c-1.75-1.05-3.32-2.36-4.98-3.58l10.14-9.18c0.87,0.79,1.66,1.49,2.54,2.18c1.49,1.05,5.94,3.85,11.45,3.85
					c0.44,0,1.84,0,2.97-0.52c1.31-0.61,1.75-1.75,1.75-2.36c0-0.52-0.26-0.96-0.35-1.05c-1.14-1.75-3.15-1.57-6.56-2.18
					c-1.05-0.17-5.33-1.05-8.92-2.27c-4.19-1.4-7.43-3.06-9.44-7.34c-0.79-1.75-1.22-3.5-1.22-5.42c0-3.93,1.84-6.9,2.62-8.04
					c2.62-3.67,7.78-7.43,17.92-7.43c5.42,0,12.32,1.14,17.22,3.67c1.66,0.87,2.88,1.75,4.37,2.88l-9.7,8.83
					c-1.31-0.87-6.12-4.37-11.62-4.37c-0.35,0-1.57,0-2.54,0.44c-1.05,0.52-1.31,1.49-1.31,1.92c0,1.14,0.96,1.66,1.22,1.75
					c0.79,0.44,2.53,0.79,4.72,1.31c6.64,1.66,10.49,2.27,13.37,3.76c2.27,1.14,7.17,4.63,7.17,11.8
					C144.8,89.78,144.28,92.14,142.97,94.5z"/>
			</g>
		</g>
	</g>
	<g>
		<g>
			<g>
				<path class="st3" d="M40.12,91.7V65.83c0-1.31-0.09-1.57-0.26-2.36c-0.35-1.75-1.75-4.11-6.21-4.11c-1.4,0-5.33,0.17-6.38,4.2
					c-0.26,0.87-0.26,1.84-0.26,2.62V91.7H9V29.99h17.92v20.98c0.96-1.22,1.4-1.66,2.01-2.27c1.75-1.66,5.86-4.19,12.41-4.19
					c4.37,0,9.35,1.31,12.59,4.54c1.14,1.14,2.97,3.41,3.67,7.25c0.44,2.18,0.52,3.67,0.52,5.86V91.7H40.12z"/>
			</g>
		</g>
	</g>
	<g>
		<g>
			<path class="st4" d="M186.84,63.58c0-4.2-0.35-6.03-1.31-8.04c-0.73-1.53-1.73-2.79-2.92-3.83v42.11h5.8
				c-1.14-1.57-1.57-2.27-1.57-5.59V63.58z"/>
		</g>
		<g>
			<path class="st4" d="M274.1,69.51c-0.07-0.3-0.16-0.6-0.24-0.9c-3.7,3.61-4.1,7.9-4.1,10c0,4.51,1.71,8.44,4.95,11.11V75.8
				C274.71,72.56,274.45,70.99,274.1,69.51z"/>
		</g>
		<g>
			<path class="st5" d="M231.21,65.24c0-3.12-0.24-4.69-0.57-6.13h-4.53v34.71h5.1V65.24z"/>
		</g>
		<g>
			<path class="st5" d="M139.79,76.74c-0.34,1.41-0.41,2.66-0.41,3.53c0,4.47,1.69,8.38,4.88,11.05c0.37-1.34,0.53-2.71,0.53-4.16
				C144.8,81.85,142.11,78.55,139.79,76.74z"/>
		</g>
		<g>
			<path class="st4" d="M104.89,61.46c-0.33,0.38-0.64,0.76-0.91,1.14c-0.79,1.14-2.62,4.11-2.62,8.04c0,1.92,0.44,3.67,1.22,5.42
				c0.47,1,1.01,1.85,1.61,2.6c1.59-4.12,1.78-7.93,1.78-9.51C105.98,66.61,105.62,63.99,104.89,61.46z"/>
		</g>
		<g>
			<path class="st5" d="M57.6,56.3c-0.09-0.47-0.19-0.92-0.31-1.35c-2.81,4.22-4.1,9.31-4.1,14.46c0,7.06,2.37,11.98,4.93,15.23
				V62.16C58.12,59.97,58.03,58.49,57.6,56.3z"/>
		</g>
	</g>
	<g>
		<g>
			<path class="st0" d="M157.31,96.81c-1.16,0-4.25,0-7.35-1.15c-5.84-2.27-9.18-7.27-9.18-13.72c0-3.49,1.1-8.4,6.33-11.94
				c3.7-2.5,8.47-3.16,12.68-3.75l1.2-0.17c2.3-0.32,4.68-0.64,6.94-1.11l0.53-0.12c0.91-0.21,1.85-0.42,2.75-0.69
				c-0.01-0.44-0.05-1.29-0.24-1.79c-0.44-1.55-1.42-2.97-5.6-2.97c-1.28,0-2.15,0.17-2.57,0.26c-2.33,0.58-2.77,2.4-3.02,3.48
				c-0.03,0.13-0.06,0.24-0.09,0.34l-0.05,0.2l-17.42,0.45l0.06-0.34c0.1-0.54,0.22-1.05,0.35-1.55c0.1-0.39,0.19-0.78,0.27-1.16
				c0.52-2.08,1.61-5.14,5.08-7.86c4.18-3.26,10.23-4.78,19.05-4.78c10.99,0,17.67,2.82,20.44,8.64c1.03,2.14,1.34,4.05,1.34,8.16
				v24.65c0,3.33,0.45,3.94,1.52,5.43l0.32,0.44h-18.56v-3.22c-0.64,0.47-1.5,1.08-2.92,1.79
				C167.66,95.08,163.52,96.81,157.31,96.81z M165.35,58.85c3.62,0,5.45,1,6.12,3.35c0.25,0.65,0.27,1.74,0.27,2.17v0.21l-0.2,0.06
				c-0.97,0.3-1.99,0.53-2.98,0.76l-0.53,0.12c-2.28,0.47-4.67,0.8-6.98,1.11l-1.2,0.17c-4.15,0.58-8.84,1.23-12.44,3.66
				c-5.03,3.4-6.08,8.12-6.08,11.48c0,6.21,3.22,11.02,8.83,13.2c3.01,1.12,6.02,1.12,7.15,1.12c6.09,0,10.13-1.69,11.59-2.42
				c1.58-0.79,2.43-1.43,3.1-1.94l0.62-0.47v3.77h16.93c-0.97-1.39-1.31-2.29-1.31-5.32V65.24c0-4.01-0.3-5.86-1.28-7.92
				c-2.67-5.6-9.19-8.32-19.94-8.32c-8.69,0-14.63,1.48-18.71,4.66c-3.73,2.91-4.57,6.27-4.88,7.54c-0.08,0.38-0.17,0.77-0.27,1.17
				c-0.09,0.38-0.19,0.78-0.27,1.18l16.31-0.42c0.01-0.04,0.02-0.08,0.03-0.13c0.27-1.13,0.77-3.22,3.44-3.89
				C163.11,59.03,164.01,58.85,165.35,58.85z M162.2,85.19c-3.47,0-4.74-2.26-4.74-3.77c0-1.05,0.55-1.84,0.78-2.18l0.05-0.08
				c1.47-1.84,4.19-2.46,6.18-2.91l0.08,0.27l-0.07-0.27c2.26-0.61,4.54-1.31,6.8-2.09l0.37-0.13l0,0.68
				c0.01,2.29,0.03,6.55-4.96,9.22C165.46,84.55,163.96,85.19,162.2,85.19z M171.1,74.81c-2.15,0.73-4.32,1.4-6.47,1.98l-0.03,0.01
				c-1.91,0.43-4.53,1.03-5.86,2.7l-0.04,0.06c-0.2,0.3-0.68,0.99-0.68,1.86c0,1.11,0.87,3.22,4.18,3.22c1.64,0,3.06-0.6,4.25-1.19
				C171.07,80.97,171.12,77,171.1,74.81z"/>
		</g>
	</g>
	<g>
		<g>
			<path class="st0" d="M287.68,95.14c-1.16,0-4.25,0-7.35-1.15c-5.84-2.27-9.18-7.27-9.18-13.72c0-3.49,1.1-8.4,6.33-11.94
				c3.7-2.5,8.47-3.16,12.68-3.75l1.2-0.17c2.3-0.32,4.68-0.64,6.94-1.11l0.53-0.12c0.91-0.21,1.85-0.42,2.75-0.69
				c-0.01-0.44-0.05-1.29-0.24-1.79c-0.44-1.55-1.42-2.97-5.6-2.97c-1.28,0-2.15,0.17-2.57,0.26c-2.33,0.58-2.77,2.4-3.02,3.48
				c-0.03,0.13-0.06,0.24-0.09,0.34l-0.05,0.2l-17.42,0.45l0.06-0.34c0.1-0.54,0.22-1.05,0.35-1.55c0.1-0.39,0.19-0.78,0.27-1.16
				c0.52-2.08,1.61-5.14,5.08-7.86c4.18-3.26,10.23-4.78,19.05-4.78c10.99,0,17.67,2.82,20.44,8.64c1.03,2.14,1.34,4.05,1.34,8.16
				v24.65c0,3.33,0.45,3.94,1.52,5.43L321,94.1h-18.56v-3.22c-0.64,0.47-1.5,1.08-2.92,1.79C298.03,93.41,293.89,95.14,287.68,95.14
				z M295.72,57.18c3.62,0,5.45,1,6.12,3.35c0.25,0.65,0.27,1.74,0.27,2.17v0.21l-0.2,0.06c-0.97,0.3-1.99,0.53-2.98,0.76
				l-0.53,0.12c-2.28,0.47-4.67,0.8-6.98,1.11l-1.2,0.17c-4.15,0.58-8.84,1.23-12.44,3.66c-5.03,3.4-6.08,8.12-6.08,11.48
				c0,6.21,3.22,11.02,8.83,13.2c3.01,1.12,6.02,1.12,7.15,1.12c6.09,0,10.13-1.69,11.59-2.42c1.58-0.79,2.43-1.43,3.1-1.94
				l0.62-0.47v3.77h16.93c-0.97-1.39-1.31-2.29-1.31-5.32V63.58c0-4.01-0.3-5.86-1.28-7.92c-2.67-5.6-9.19-8.32-19.94-8.32
				c-8.69,0-14.63,1.48-18.71,4.66c-3.73,2.91-4.57,6.27-4.88,7.54c-0.08,0.38-0.17,0.77-0.27,1.17c-0.09,0.38-0.19,0.78-0.27,1.18
				l16.31-0.42c0.01-0.04,0.02-0.08,0.03-0.13c0.27-1.13,0.77-3.22,3.44-3.89C293.48,57.36,294.38,57.18,295.72,57.18z
				 M292.57,83.52c-3.47,0-4.74-2.26-4.74-3.77c0-1.05,0.55-1.84,0.78-2.18l0.05-0.08c1.47-1.84,4.19-2.46,6.18-2.91l0.08,0.27
				l-0.07-0.27c2.26-0.61,4.54-1.31,6.8-2.09l0.37-0.13l0,0.68c0.01,2.29,0.03,6.55-4.96,9.22
				C295.83,82.89,294.33,83.52,292.57,83.52z M301.48,73.14c-2.15,0.73-4.32,1.4-6.47,1.98l-0.03,0.01
				c-1.91,0.43-4.53,1.03-5.86,2.7l-0.04,0.06c-0.2,0.3-0.68,0.99-0.68,1.86c0,1.11,0.87,3.22,4.18,3.22c1.64,0,3.06-0.6,4.25-1.19
				C301.44,79.3,301.49,75.33,301.48,73.14z"/>
		</g>
	</g>
	<g>
		<g>
			<path class="st0" d="M80.64,95.39c-7.12,0-13.03-1.81-17.57-5.39c-3.17-2.5-8.5-8.29-8.5-18.92c0-6.79,2.23-12.94,6.28-17.32
				c2.72-2.95,8.97-7.87,20.43-7.87c0.11,0,0.21,0,0.32,0c3.46,0,12.21,0.6,18.62,6.19c4.75,4.18,7.7,11.36,7.7,18.74
				c0,2.96-0.58,10.49-5.93,16.44v0C99.8,89.71,93.31,95.39,80.64,95.39z M81.28,46.45c-11.25,0-17.36,4.81-20.02,7.69
				c-3.95,4.28-6.13,10.29-6.13,16.94c0,10.39,5.19,16.04,8.29,18.49c4.43,3.5,10.23,5.27,17.22,5.27c12.45,0,18.79-5.56,20.95-7.95
				c5.37-5.97,5.78-13.81,5.78-16.07c0-7.23-2.88-14.25-7.51-18.32C93.58,47.04,85,46.45,81.6,46.45
				C81.49,46.45,81.39,46.45,81.28,46.45z M81.16,82.72c-1.55,0-2.92-0.33-3.53-0.64c-1.07-0.44-2.07-1.25-2.81-2.27
				c-0.7-0.97-2.33-3.81-2.33-9.25c0-4.13,0.98-7.55,2.7-9.37c1.48-1.65,3.52-2.56,5.88-2.62c0.54,0,1.71,0,3.07,0.45l0,0
				c3.77,1.33,5.6,5.04,5.6,11.36c0,4.56-1.11,8.39-2.97,10.25C85.41,82,83.47,82.72,81.16,82.72z M81.07,59.12
				c-2.2,0.06-4.09,0.91-5.47,2.44c-0.77,0.82-2.55,3.32-2.55,8.99c0,3.66,0.83,7,2.22,8.93c0.68,0.94,1.6,1.68,2.59,2.09
				c0.49,0.24,1.75,0.59,3.3,0.59c2.16,0,3.96-0.67,5.22-1.93c1.75-1.76,2.8-5.44,2.8-9.85c0-6.05-1.71-9.6-5.23-10.84
				C82.69,59.12,81.6,59.12,81.07,59.12z"/>
		</g>
	</g>
	<g>
		<g>
			<path class="st0" d="M233.16,95.76H214.6V70.75c0-1.06,0-1.98-0.25-2.99c-0.45-1.61-1.78-3.55-5.59-3.55
				c-2.69,0-4.54,0.94-5.49,2.78c-0.79,1.53-0.79,3.33-0.79,4.3v24.48h-18.47V49.93h17.51v5.42c0.73-1.03,0.98-1.28,1.71-2.02
				c3.82-3.82,9.16-4.63,12.96-4.63c4.75,0,8.8,1.32,11.72,3.82c2.19,1.79,3.84,4.63,4.63,8.01c0.38,1.62,0.62,3.25,0.62,6.36V95.76
				z M215.15,95.21h17.45V66.9c0-3.38-0.3-4.93-0.6-6.23c-0.77-3.26-2.35-6-4.45-7.71c-2.82-2.42-6.75-3.7-11.36-3.7
				c-3.7,0-8.87,0.77-12.56,4.46c-0.87,0.87-1.03,1.03-2.15,2.67l-0.51,0.74v-6.65h-16.4v44.72h17.36V71.29c0-1.01,0-2.9,0.85-4.55
				c1.05-2.05,3.07-3.08,5.98-3.08c4.15,0,5.62,2.15,6.12,3.96c0.27,1.09,0.27,2.08,0.27,3.13V95.21z"/>
		</g>
	</g>
	<g>
		<g>
			<path class="st0" d="M276.66,106.32h-18.56V81.31c0-1.06,0-1.98-0.25-2.99c-0.45-1.61-1.78-3.55-5.59-3.55
				c-2.69,0-4.54,0.94-5.49,2.78c-0.79,1.53-0.79,3.33-0.79,4.29v24.48H227.5V60.49h17.51v5.42c0.73-1.03,0.98-1.28,1.71-2.02
				c3.82-3.82,9.16-4.63,12.96-4.63c4.75,0,8.8,1.32,11.72,3.82c2.19,1.79,3.84,4.63,4.63,8.01c0.38,1.62,0.62,3.25,0.62,6.36
				V106.32z M258.65,105.77h17.45v-28.3c0-3.38-0.3-4.93-0.6-6.23c-0.77-3.26-2.35-6-4.45-7.71c-2.82-2.42-6.75-3.7-11.36-3.7
				c-3.7,0-8.87,0.77-12.56,4.46c-0.87,0.87-1.03,1.03-2.15,2.67l-0.51,0.74v-6.65h-16.4v44.72h17.36V81.85c0-1.01,0-2.9,0.85-4.55
				c1.05-2.05,3.07-3.08,5.98-3.08c4.15,0,5.62,2.15,6.12,3.96c0.27,1.09,0.27,2.08,0.27,3.13V105.77z"/>
		</g>
	</g>
	<g>
		<g>
			<path class="st0" d="M124.97,105.98c-6.88,0-13.79-1.97-19.46-5.55c-1.26-0.76-2.46-1.67-3.62-2.55
				c-0.46-0.35-0.92-0.7-1.38-1.04l-0.27-0.2l10.58-9.57l0.19,0.17c0.82,0.74,1.64,1.47,2.52,2.17c1.6,1.13,5.94,3.79,11.28,3.79
				c0.44,0,1.78,0,2.86-0.5c1.16-0.54,1.59-1.56,1.59-2.11c0-0.42-0.21-0.79-0.27-0.85c-0.85-1.29-2.15-1.48-4.31-1.78
				c-0.62-0.09-1.33-0.19-2.09-0.32c-0.88-0.15-5.24-1.01-8.96-2.28c-4.45-1.49-7.62-3.26-9.6-7.49c-0.85-1.9-1.25-3.65-1.25-5.54
				c0-3.77,1.67-6.76,2.67-8.2c2.46-3.45,7.6-7.55,18.15-7.55c4.93,0,12.08,0.97,17.35,3.7c1.49,0.79,2.61,1.65,3.91,2.65l0.76,0.59
				l-0.64,0.58l-9.48,8.5l-0.45-0.3c-1.67-1.13-6.1-4.14-11.2-4.14c-1,0-1.82,0.14-2.42,0.41c-0.91,0.45-1.15,1.29-1.15,1.67
				c0,1.09,1.02,1.48,1.03,1.48c0.65,0.36,1.91,0.65,3.5,1.02c0.38,0.09,0.78,0.18,1.19,0.28c1.75,0.44,3.31,0.8,4.7,1.13
				c3.96,0.93,6.58,1.54,8.73,2.65c1.71,0.86,7.32,4.26,7.32,12.05c0,2.8-0.59,5.18-1.87,7.48
				C140.07,105.03,129.35,105.98,124.97,105.98z M101.11,96.59c0.37,0.28,0.75,0.56,1.11,0.84c1.14,0.87,2.33,1.78,3.57,2.52
				c5.59,3.53,12.4,5.47,19.17,5.47c4.28,0,14.75-0.91,19.42-9.38v0c1.23-2.21,1.8-4.5,1.8-7.21c0-7.46-5.37-10.73-7.01-11.55
				c-2.1-1.08-4.69-1.69-8.61-2.61c-1.4-0.33-2.95-0.69-4.71-1.13c-0.41-0.1-0.81-0.19-1.19-0.28c-1.64-0.38-2.93-0.68-3.6-1.06
				c-0.35-0.11-1.37-0.73-1.37-1.99c0-0.53,0.31-1.59,1.47-2.17c0.68-0.31,1.58-0.47,2.66-0.47c5.27,0,9.8,3.08,11.51,4.24
				l0.09,0.06l9.29-8.34l-0.24-0.18c-1.28-0.98-2.38-1.83-3.83-2.59c-5.18-2.68-12.22-3.64-17.09-3.64
				c-5.69,0-13.37,1.27-17.69,7.31c-0.96,1.39-2.57,4.26-2.57,7.88c0,1.8,0.38,3.49,1.2,5.3c1.9,4.05,4.96,5.75,9.27,7.19
				c3.68,1.26,8,2.12,8.87,2.26c0.76,0.14,1.46,0.24,2.08,0.32c2.23,0.31,3.7,0.52,4.65,1.97c0.14,0.17,0.41,0.65,0.41,1.22
				c0,0.59-0.4,1.91-1.91,2.61c-1.19,0.55-2.62,0.55-3.09,0.55c-5.5,0-9.95-2.73-11.61-3.9c-0.84-0.67-1.61-1.35-2.37-2.04
				L101.11,96.59z"/>
		</g>
	</g>
	<g>
		<g>
			<path class="st0" d="M60.07,93.65H41.51V67.5c0-1.17-0.07-1.46-0.21-2.1l-0.04-0.2c-0.29-1.46-1.45-3.89-5.93-3.89
				c-3.32,0-5.43,1.38-6.11,3.99c-0.25,0.84-0.25,1.79-0.25,2.55v25.8H10.39V31.38h18.47v20.46c0.65-0.79,1.04-1.18,1.54-1.68
				c1.06-1.01,5.09-4.28,12.61-4.28c5.11,0,9.89,1.73,12.78,4.63c1.92,1.92,3.22,4.48,3.75,7.4c0.45,2.23,0.53,3.74,0.53,5.91V93.65
				z M42.06,93.09h17.45V63.83c0-2.13-0.08-3.61-0.52-5.8c-0.51-2.81-1.75-5.27-3.59-7.11c-2.8-2.79-7.43-4.46-12.39-4.46
				c-7.31,0-11.2,3.15-12.22,4.12c-0.6,0.6-1.03,1.03-1.98,2.24l-0.5,0.63v-21.5H10.95v61.15h17.45V67.85c0-0.8,0-1.79,0.27-2.7
				c0.75-2.87,3.05-4.39,6.65-4.39c5.07,0,6.22,3.03,6.48,4.33l0.04,0.19c0.15,0.66,0.23,1,0.23,2.23V93.09z"/>
		</g>
	</g>
</g>
</svg>
