<svg version="1.1" id="Layer_1" xmlns="http://www.w3.org/2000/svg" x="0" y="0" viewBox="0 0 330 132" style="enable-background:new 0 0 330 132" xml:space="preserve">
    <style>
        .st0{fill:#770123}.st1{fill:#ff4d9d}.st2{fill:#ff4b09}.st3{fill:#fc0061}.st4{fill:#ffaade}.st5{fill:#ff9200}
    </style>
    <path class="st0" d="M112.61 122.63c.37 0 .61.04.72.11.1.07.16.2.16.4s-.05.34-.16.41c-.1.08-.34.11-.72.11h-4.76c-.17 0-.31-.04-.4-.13a.53.53 0 0 1-.14-.39c0-.19.05-.33.16-.4s.35-.11.72-.11h1.65v-6.56h-1.65c-.36 0-.6-.04-.71-.11-.11-.08-.17-.21-.17-.41 0-.18.05-.31.14-.4.09-.08.23-.13.41-.13h5.09c.17 0 .31.04.4.13.09.09.13.22.13.39 0 .2-.05.34-.16.41-.11.08-.35.11-.71.11h-1.65v6.56h1.65zM115.88 122.63v-4.67h-.14c-.33 0-.56-.04-.68-.12-.12-.08-.19-.21-.19-.41 0-.18.05-.31.15-.39.1-.08.27-.12.49-.12h1.04c.13 0 .23.03.31.08.07.05.11.13.11.22v.49c.35-.33.7-.57 1.05-.73.35-.16.71-.24 1.08-.24.73 0 1.31.23 1.73.68.42.46.63 1.09.63 1.89v3.3h.34c.24 0 .42.04.53.12.11.08.16.21.16.38 0 .19-.06.32-.17.4-.11.08-.32.12-.61.12h-1.61c-.31 0-.51-.04-.6-.11-.09-.07-.13-.21-.13-.41 0-.19.05-.32.15-.39s.3-.11.58-.11h.26v-3.03c0-.57-.13-1-.39-1.3-.26-.3-.63-.45-1.12-.45-.5 0-.93.17-1.31.5-.38.33-.57.75-.57 1.24v3.03h.25c.29 0 .49.04.59.11.1.07.15.2.15.39 0 .2-.04.34-.13.41s-.3.11-.64.11h-1.71c-.2 0-.35-.04-.45-.13-.1-.08-.15-.22-.15-.4 0-.19.06-.33.17-.4s.34-.11.67-.11h.16zM133.4 117.34c.24 0 .41.04.52.12.11.08.16.21.16.39 0 .17-.05.3-.15.38-.1.08-.25.13-.46.13h-2.95v2.43c0 .8.1 1.32.31 1.57s.56.38 1.06.38c.44 0 .97-.13 1.59-.39.62-.26 1-.39 1.14-.39.14 0 .25.05.35.15.1.1.14.22.14.36 0 .16-.06.3-.18.42s-.32.23-.61.35c-.48.19-.9.33-1.28.41-.38.09-.74.13-1.07.13-.57 0-1.04-.09-1.43-.27-.39-.18-.67-.45-.86-.81-.1-.17-.17-.37-.21-.6-.04-.23-.06-.59-.06-1.08v-2.66h-1.24c-.2 0-.35-.04-.44-.12-.09-.08-.14-.21-.14-.39 0-.2.06-.33.19-.41.13-.07.4-.11.81-.11h.82v-1.88c0-.21.04-.36.13-.46.09-.1.23-.15.42-.15.21 0 .36.06.44.18.08.12.12.4.12.83v1.48h2.88zM137.51 122.63v-7.45h-.14c-.33 0-.56-.04-.68-.12-.12-.08-.19-.21-.19-.41 0-.17.05-.31.15-.39.1-.09.24-.13.43-.13h1.11c.13 0 .23.03.31.08.07.05.11.13.11.22v3.3c.35-.33.7-.57 1.05-.73.35-.16.71-.24 1.08-.24.73 0 1.31.23 1.73.68.42.46.63 1.09.63 1.89v3.3h.34c.24 0 .42.04.53.12.11.08.16.21.16.38s-.05.31-.15.39c-.1.09-.24.13-.44.13h-1.94c-.23 0-.38-.04-.46-.11-.08-.08-.12-.21-.12-.41 0-.19.05-.33.15-.4.1-.07.29-.11.57-.11h.26v-3.03c0-.57-.13-1-.39-1.3-.26-.3-.63-.45-1.12-.45-.5 0-.94.17-1.32.5-.38.33-.57.75-.57 1.24v3.03h.25c.29 0 .49.04.59.11.1.07.15.2.15.39 0 .2-.04.34-.12.41-.08.08-.23.11-.46.11h-1.94c-.19 0-.33-.04-.43-.13a.53.53 0 0 1-.14-.39c0-.19.06-.33.17-.4s.34-.11.67-.11h.17zM146.43 120.62c.04.7.28 1.24.71 1.62.43.38 1.03.57 1.78.57.57 0 1.19-.15 1.86-.45.67-.3 1.07-.45 1.22-.45.15 0 .27.05.36.14.1.09.15.21.15.34 0 .14-.05.27-.15.39-.1.12-.26.23-.49.34a7.1 7.1 0 0 1-1.5.54c-.52.13-1.03.19-1.54.19-1.11 0-1.99-.32-2.66-.96-.67-.64-1-1.48-1-2.54 0-1.07.35-1.94 1.06-2.61.7-.66 1.62-1 2.75-1 1.02 0 1.87.31 2.55.93.67.62 1.01 1.37 1.01 2.26 0 .27-.06.45-.17.55-.11.09-.42.14-.93.14H146.43zm.04-.96h4.74c-.07-.58-.31-1.04-.72-1.39-.41-.35-.91-.53-1.51-.53-.65 0-1.19.17-1.63.51-.45.34-.74.81-.88 1.41zM158.43 117.74h.49c.29 0 .49.04.6.12s.17.21.17.39c0 .2-.05.34-.15.41-.1.08-.33.11-.67.11H156.95c-.18 0-.31-.04-.4-.13-.09-.09-.13-.22-.13-.39 0-.19.05-.32.16-.39.1-.07.3-.11.59-.11h.13v-6.56h-.12c-.29 0-.49-.04-.6-.12s-.16-.21-.16-.41c0-.18.04-.31.13-.4.09-.08.23-.13.42-.13h1.83c.39 0 .63.04.74.11s.16.21.16.41c0 .19-.07.33-.2.41-.13.08-.38.12-.74.12h-.33v2.53h3.49v-2.53h-.5c-.28 0-.47-.04-.59-.12-.12-.08-.18-.22-.18-.4 0-.2.05-.34.16-.41.11-.08.38-.11.8-.11h1.78c.17 0 .31.04.4.13.09.09.13.22.13.39 0 .19-.05.32-.15.4-.1.08-.28.12-.55.12h-.17v6.56h.12c.29 0 .49.04.6.11.11.08.16.21.16.39 0 .2-.05.34-.15.41-.1.08-.34.11-.71.11h-1.51c-.39 0-.64-.04-.75-.11-.11-.08-.16-.21-.16-.41 0-.19.06-.32.19-.39s.37-.11.72-.11h.36v-3.03h-3.49v3.03zM169.2 117.74h2.34c.19 0 .33.04.42.12.09.08.13.21.13.38 0 .2-.04.34-.13.41-.08.08-.24.11-.47.11h-5.64c-.19 0-.34-.04-.44-.13-.1-.09-.15-.22-.15-.39s.05-.3.15-.38c.1-.08.25-.12.46-.12h2.22v-4.67h-1.42c-.2 0-.35-.04-.46-.13-.11-.09-.16-.22-.16-.39s.05-.3.15-.38c.1-.08.24-.13.44-.13h2.13c.13 0 .23.03.31.08.08.05.11.13.11.22v5.4zm-1.35-7.79c0-.52.05-.85.14-.99.09-.14.3-.2.61-.2.3 0 .5.06.6.17.1.11.15.38.15.81 0 .42-.04.68-.13.78-.09.1-.29.15-.61.15-.31 0-.51-.05-.61-.14-.1-.1-.15-.29-.15-.58zM179.24 118.38c0 .68-.03 1.16-.1 1.44s-.19.53-.35.75c-.27.36-.66.63-1.15.82-.49.19-1.07.28-1.73.28-.55 0-.96-.05-1.21-.16s-.38-.28-.38-.51c0-.15.06-.28.19-.4.12-.11.27-.17.44-.17.13 0 .33.02.6.05.27.04.48.05.62.05.72 0 1.23-.16 1.53-.49.3-.33.45-.9.45-1.7v-.88c-.3.34-.62.6-.98.76-.36.16-.77.24-1.24.24-.91 0-1.66-.3-2.25-.91-.59-.6-.89-1.37-.89-2.3 0-.93.31-1.7.92-2.32.61-.61 1.37-.92 2.27-.92.37 0 .74.07 1.1.21s.72.35 1.08.63v-.52c0-.1.03-.18.1-.23.07-.05.17-.07.31-.07h1.1c.19 0 .34.04.44.13.1.08.15.21.15.38 0 .19-.06.33-.18.41-.12.08-.35.12-.68.12h-.13v5.31zm-3.17-5.26c-.64 0-1.15.2-1.56.59-.4.39-.6.9-.6 1.53 0 .62.2 1.12.6 1.52.4.4.92.59 1.56.59.63 0 1.15-.2 1.55-.59.41-.4.61-.9.61-1.52s-.2-1.12-.61-1.52c-.4-.4-.92-.6-1.55-.6zM182.19 117.74v-7.45h-.14c-.33 0-.56-.04-.68-.12-.12-.08-.19-.21-.19-.41 0-.17.05-.31.15-.39.1-.09.24-.13.43-.13h1.11c.13 0 .23.03.31.08.07.05.11.13.11.22v3.3c.35-.33.7-.57 1.05-.73.35-.16.71-.24 1.08-.24.73 0 1.31.23 1.73.68.42.46.63 1.09.63 1.89v3.3h.34c.24 0 .42.04.53.12.11.08.16.21.16.38s-.05.31-.15.39c-.1.09-.24.13-.44.13h-1.94c-.23 0-.38-.04-.46-.11-.08-.08-.12-.21-.12-.41 0-.19.05-.33.15-.4s.29-.11.57-.11h.26v-3.03c0-.57-.13-1-.39-1.3-.26-.3-.63-.45-1.12-.45-.5 0-.94.17-1.32.5-.38.33-.57.75-.57 1.24v3.03h.25c.29 0 .49.04.59.11.1.07.15.2.15.39 0 .2-.04.34-.12.41-.08.08-.23.11-.46.11h-1.94c-.19 0-.33-.04-.43-.13a.53.53 0 0 1-.14-.39c0-.19.06-.33.17-.4s.34-.11.67-.11h.17zM190.81 115.73c.04.7.28 1.24.71 1.62.43.38 1.03.57 1.78.57.57 0 1.19-.15 1.86-.45.67-.3 1.07-.45 1.22-.45.15 0 .27.05.36.14.1.09.15.21.15.34 0 .14-.05.27-.15.39-.1.12-.26.23-.49.34a7.1 7.1 0 0 1-1.5.54c-.52.13-1.03.19-1.54.19-1.11 0-1.99-.32-2.66-.96-.67-.64-1-1.48-1-2.54 0-1.07.35-1.94 1.06-2.61.7-.66 1.62-1 2.75-1 1.02 0 1.87.31 2.55.93.67.62 1.01 1.37 1.01 2.26 0 .27-.06.45-.17.55-.11.09-.42.14-.93.14H190.81zm.04-.96h4.74c-.07-.58-.31-1.04-.72-1.39-.41-.35-.91-.53-1.51-.53-.65 0-1.19.17-1.63.51-.45.34-.74.81-.88 1.41zM198.31 118.25v-1.3c0-.21.04-.37.12-.46.08-.09.21-.14.39-.14.2 0 .36.14.47.41.08.17.15.29.21.37.2.26.5.47.9.63.4.16.84.24 1.32.24.51 0 .93-.1 1.24-.31.31-.21.47-.48.47-.82 0-.34-.13-.59-.38-.74-.25-.15-.68-.22-1.28-.22h-.4c-.99 0-1.74-.17-2.26-.52-.52-.34-.78-.84-.78-1.5 0-.64.25-1.14.76-1.49.51-.35 1.22-.53 2.14-.53.37 0 .75.05 1.14.16.39.1.59.16.61.16.05 0 .16-.05.31-.14.15-.09.3-.14.44-.14.16 0 .29.06.37.18.08.12.12.3.12.55v.85c0 .26-.04.44-.12.56-.08.11-.2.17-.37.17-.15 0-.33-.12-.54-.37-.15-.17-.27-.3-.37-.39a2.33 2.33 0 0 0-.82-.51c-.29-.1-.63-.16-1.03-.16-.46 0-.82.1-1.1.3-.28.2-.42.46-.42.77s.14.52.43.66c.29.13.9.21 1.85.23 1.01.02 1.75.2 2.21.53.47.33.7.83.7 1.52 0 .66-.26 1.18-.77 1.57-.51.39-1.21.59-2.08.59-.28 0-.58-.03-.92-.08-.34-.05-.77-.14-1.28-.26-.17.11-.32.2-.44.25-.12.06-.22.08-.31.08-.17 0-.3-.06-.39-.18-.1-.13-.14-.3-.14-.52zM211.41 112.45c.24 0 .41.04.52.12s.16.21.16.39c0 .17-.05.3-.15.38-.1.08-.25.13-.46.13h-2.95v2.43c0 .8.1 1.32.31 1.57s.56.38 1.06.38c.44 0 .97-.13 1.59-.39.62-.26 1-.39 1.14-.39.14 0 .25.05.35.15.1.1.14.22.14.36 0 .16-.06.3-.18.42s-.32.23-.61.35c-.48.19-.9.33-1.28.41-.38.09-.74.13-1.07.13-.57 0-1.04-.09-1.43-.27-.39-.18-.67-.45-.86-.81-.1-.17-.17-.37-.21-.6-.04-.23-.06-.59-.06-1.08v-2.66h-1.24c-.2 0-.35-.04-.44-.12-.09-.08-.14-.21-.14-.39 0-.2.06-.33.19-.41.13-.07.4-.11.81-.11h.82v-1.88c0-.21.04-.36.13-.46.09-.1.23-.15.42-.15.21 0 .36.06.44.18.08.12.12.4.12.83v1.48h2.88zM219.7 123.66h-1.48c-.18 0-.31-.04-.4-.13-.09-.09-.13-.22-.13-.39 0-.19.05-.32.16-.39.1-.07.3-.11.59-.11h.13v-6.56h-.12c-.29 0-.49-.04-.6-.12-.11-.08-.16-.21-.16-.41 0-.18.04-.31.13-.4.09-.08.23-.13.42-.13H221.31c1.21 0 2.17.39 2.89 1.17.72.78 1.08 1.83 1.08 3.16 0 .65-.1 1.24-.31 1.8a4.47 4.47 0 0 1-.9 1.46c-.36.38-.81.65-1.33.83-.52.17-1.19.26-2.01.26-.1 0-.26-.01-.49-.01-.24-.03-.42-.03-.54-.03zm0-1.03c.16.01.31.03.46.03.15.01.3.01.45.01 1.19 0 2.07-.27 2.62-.8.56-.53.83-1.38.83-2.53s-.28-2-.84-2.52c-.56-.53-1.45-.79-2.68-.79-.23 0-.4 0-.52.01-.12 0-.23.01-.33.03v6.56zM227.33 120.62c.04.7.28 1.24.71 1.62.43.38 1.03.57 1.78.57.57 0 1.19-.15 1.86-.45.67-.3 1.07-.45 1.22-.45.15 0 .27.05.36.14.1.09.15.21.15.34 0 .14-.05.27-.15.39-.1.12-.26.23-.49.34a7.1 7.1 0 0 1-1.5.54c-.52.13-1.03.19-1.54.19-1.11 0-1.99-.32-2.66-.96-.67-.64-1-1.48-1-2.54 0-1.07.35-1.94 1.06-2.61.7-.66 1.62-1 2.75-1 1.02 0 1.87.31 2.55.93.67.62 1.01 1.37 1.01 2.26 0 .27-.06.45-.17.55-.11.09-.42.14-.93.14H227.33zm.03-.96h4.74c-.07-.58-.31-1.04-.72-1.39-.41-.35-.91-.53-1.51-.53-.65 0-1.19.17-1.63.51-.44.34-.74.81-.88 1.41zM234.82 123.13v-1.3c0-.21.04-.37.12-.46.08-.09.21-.14.39-.14.2 0 .36.14.47.41.08.17.15.29.21.37.2.26.5.47.9.63.4.16.84.24 1.32.24.51 0 .93-.1 1.24-.31.31-.21.47-.48.47-.82 0-.34-.13-.59-.38-.74-.25-.15-.68-.22-1.28-.22h-.4c-.99 0-1.74-.17-2.26-.52-.52-.34-.78-.84-.78-1.5 0-.64.25-1.14.76-1.49.51-.35 1.22-.53 2.14-.53.37 0 .75.05 1.14.16.39.1.59.16.61.16.05 0 .16-.05.31-.14.15-.09.3-.14.44-.14.16 0 .29.06.37.18.08.12.12.3.12.55v.85c0 .26-.04.44-.12.56-.08.11-.2.17-.37.17-.15 0-.33-.12-.54-.37-.15-.17-.27-.3-.37-.39a2.33 2.33 0 0 0-.82-.51c-.29-.1-.63-.16-1.03-.16-.46 0-.82.1-1.1.3-.28.2-.42.46-.42.77s.14.52.43.66c.29.13.9.21 1.85.23 1.01.02 1.75.2 2.21.53.47.33.7.83.7 1.52 0 .66-.26 1.18-.77 1.57-.51.39-1.21.59-2.08.59-.28 0-.58-.03-.92-.08-.34-.05-.77-.14-1.28-.26-.17.11-.32.2-.44.25-.12.06-.22.08-.31.08-.17 0-.3-.06-.39-.18-.09-.12-.14-.29-.14-.52zM246.57 122.63h2.34c.19 0 .33.04.42.12.09.08.13.21.13.38 0 .2-.04.34-.13.41-.08.08-.24.11-.47.11h-5.64c-.19 0-.34-.04-.44-.13-.1-.09-.15-.22-.15-.39s.05-.3.15-.38c.1-.08.25-.12.46-.12h2.22v-4.67h-1.42c-.2 0-.35-.04-.46-.13-.11-.09-.16-.22-.16-.39s.05-.3.15-.38c.1-.08.24-.13.44-.13h2.13c.13 0 .23.03.31.08.08.05.11.13.11.22v5.4zm-1.35-7.79c0-.52.05-.85.14-.99.09-.14.3-.2.61-.2.3 0 .5.06.6.17.1.11.15.38.15.81 0 .42-.04.68-.13.78-.09.1-.29.15-.61.15-.31 0-.51-.05-.61-.14-.1-.1-.15-.29-.15-.58zM256.61 123.27c0 .68-.03 1.16-.1 1.44s-.19.53-.35.75c-.27.36-.66.63-1.15.82-.49.19-1.07.28-1.73.28-.55 0-.96-.05-1.21-.16s-.38-.28-.38-.51c0-.15.06-.28.19-.4.12-.11.27-.17.44-.17.13 0 .33.02.6.05.27.04.48.05.62.05.72 0 1.23-.16 1.53-.49.3-.33.45-.9.45-1.7v-.88c-.3.34-.62.6-.98.76-.36.16-.77.24-1.24.24-.91 0-1.66-.3-2.25-.91-.59-.6-.89-1.37-.89-2.3 0-.93.31-1.7.92-2.32.61-.61 1.37-.92 2.27-.92.37 0 .74.07 1.1.21.36.14.72.35 1.08.63v-.52c0-.1.03-.18.1-.23.07-.05.17-.07.31-.07h1.1c.19 0 .34.04.44.13.1.08.15.21.15.38 0 .19-.06.33-.18.41-.12.08-.35.12-.68.12h-.13v5.31zm-3.17-5.26c-.64 0-1.15.2-1.56.59-.4.39-.6.9-.6 1.53 0 .62.2 1.12.6 1.52.4.4.92.59 1.56.59.63 0 1.15-.2 1.55-.59.41-.4.61-.9.61-1.52s-.2-1.12-.61-1.52c-.4-.4-.92-.6-1.55-.6zM259.88 122.63v-4.67h-.14c-.33 0-.56-.04-.68-.12-.12-.08-.19-.21-.19-.41 0-.18.05-.31.15-.39.1-.08.27-.12.49-.12h1.04c.13 0 .23.03.31.08.07.05.11.13.11.22v.49c.35-.33.7-.57 1.05-.73.35-.16.71-.24 1.08-.24.73 0 1.31.23 1.73.68.42.46.63 1.09.63 1.89v3.3h.34c.24 0 .42.04.53.12.11.08.16.21.16.38 0 .19-.06.32-.17.4-.11.08-.32.12-.61.12h-1.61c-.31 0-.51-.04-.6-.11-.09-.07-.13-.21-.13-.41 0-.19.05-.32.15-.39.1-.07.3-.11.58-.11h.26v-3.03c0-.57-.13-1-.39-1.3-.26-.3-.63-.45-1.12-.45-.5 0-.93.17-1.31.5-.38.33-.57.75-.57 1.24v3.03h.25c.29 0 .49.04.59.11.1.07.15.2.15.39 0 .2-.04.34-.13.41s-.3.11-.64.11h-1.71c-.2 0-.35-.04-.45-.13-.1-.08-.15-.22-.15-.4 0-.19.06-.33.17-.4s.34-.11.67-.11h.16zM273.29 123.4c-.02.22-.08.37-.17.45-.09.08-.23.13-.41.13-.2 0-.36-.06-.45-.18-.1-.12-.16-.31-.17-.58l-.09-1.69v-.13c0-.23.04-.4.13-.49.09-.1.24-.15.45-.15.29 0 .5.21.63.63.06.21.11.37.17.47.17.34.44.6.8.79.37.18.8.28 1.31.28.63 0 1.13-.15 1.52-.44s.59-.67.59-1.14c0-.38-.12-.69-.36-.92-.24-.23-.59-.38-1.05-.45l-1.08-.15c-1-.14-1.74-.41-2.2-.79-.46-.39-.69-.93-.69-1.64 0-.74.31-1.37.92-1.87s1.38-.76 2.3-.76c.27 0 .55.04.84.11.3.07.63.18 1 .33.01-.14.05-.24.12-.29.07-.05.18-.08.35-.08.21 0 .36.03.44.09.08.06.13.21.15.45l.1 1.52v.07c0 .17-.05.3-.15.4-.1.09-.23.14-.41.14-.26 0-.46-.18-.6-.54-.07-.2-.14-.36-.2-.46-.16-.24-.39-.43-.69-.56-.3-.13-.64-.2-1.03-.2-.59 0-1.06.15-1.43.44-.37.29-.55.67-.55 1.14 0 .37.14.66.41.87.27.21.69.36 1.26.44l1.16.15c.84.11 1.48.37 1.91.78.43.41.64.95.64 1.64 0 .82-.3 1.47-.91 1.96-.61.49-1.42.74-2.43.74-.35 0-.7-.04-1.04-.12a5.54 5.54 0 0 1-1.09-.39zM285.26 117.34c.24 0 .41.04.52.12.11.08.16.21.16.39 0 .17-.05.3-.15.38-.1.08-.25.13-.46.13h-2.95v2.43c0 .8.1 1.32.31 1.57s.56.38 1.06.38c.44 0 .97-.13 1.59-.39.62-.26 1-.39 1.14-.39.14 0 .25.05.35.15.1.1.14.22.14.36 0 .16-.06.3-.18.42s-.32.23-.61.35c-.48.19-.9.33-1.28.41-.38.09-.74.13-1.07.13-.57 0-1.04-.09-1.43-.27-.39-.18-.67-.45-.86-.81-.1-.17-.17-.37-.21-.6-.04-.23-.06-.59-.06-1.08v-2.66h-1.24c-.2 0-.35-.04-.44-.12-.09-.08-.14-.21-.14-.39 0-.2.06-.33.19-.41.13-.07.4-.11.81-.11h.82v-1.88c0-.21.04-.36.13-.46.09-.1.23-.15.42-.15.21 0 .36.06.44.18.08.12.12.4.12.83v1.48h2.88zM289.51 120.97c0 .61.13 1.06.39 1.34s.66.42 1.22.42c.53 0 .98-.17 1.36-.5.38-.34.56-.76.56-1.26v-3.01h-1c-.19 0-.33-.04-.41-.12-.08-.08-.13-.2-.13-.37 0-.18.05-.32.14-.4.09-.09.24-.13.44-.13h1.55c.18 0 .31.04.39.12.07.08.11.28.11.59v4.99h.33c.24 0 .41.04.51.12.1.08.16.21.16.39 0 .17-.05.31-.15.39-.1.09-.24.13-.43.13h-1.11c-.13 0-.23-.03-.31-.08a.266.266 0 0 1-.11-.22v-.5c-.47.36-.87.61-1.2.74-.33.13-.68.2-1.05.2-.8 0-1.4-.21-1.8-.64-.4-.42-.6-1.07-.6-1.93v-3.28h-.15c-.33 0-.56-.04-.68-.12-.12-.08-.18-.21-.18-.4 0-.17.05-.3.14-.38.09-.08.24-.13.44-.13h1.1c.17 0 .29.03.35.1s.1.22.1.45v3.49zM301.64 123.66c-.1 0-.17-.03-.21-.08-.04-.05-.06-.15-.06-.29v-.6c-.29.36-.66.65-1.09.85-.44.2-.91.3-1.42.3-.92 0-1.69-.33-2.3-.98-.62-.65-.93-1.46-.93-2.43 0-1 .33-1.84.99-2.51.66-.67 1.48-1 2.47-1 .5 0 .95.09 1.35.27.4.18.74.44 1.03.78v-2.79h-.39c-.42 0-.7-.04-.82-.11s-.19-.21-.19-.41c0-.17.05-.31.15-.39.1-.09.24-.13.43-.13h1.49c.15 0 .25.02.32.07s.1.12.1.23v8.2h.33c.24 0 .41.04.52.12.11.08.16.21.16.38 0 .16-.05.29-.14.39-.09.09-.22.14-.37.14h-1.42zm-4.77-3.27c0 .67.22 1.22.65 1.64.43.43.98.64 1.64.64.67 0 1.22-.22 1.65-.67.43-.44.65-1.01.65-1.69 0-.67-.21-1.23-.64-1.67-.43-.44-.98-.66-1.66-.66-.68 0-1.24.22-1.66.66-.42.46-.63 1.04-.63 1.75zM309.07 122.63h2.34c.19 0 .33.04.42.12.09.08.13.21.13.38 0 .2-.04.34-.13.41-.08.08-.24.11-.47.11h-5.64c-.19 0-.34-.04-.44-.13s-.15-.22-.15-.39.05-.3.15-.38c.1-.08.25-.12.46-.12h2.22v-4.67h-1.42c-.2 0-.35-.04-.46-.13-.11-.09-.16-.22-.16-.39s.05-.3.15-.38c.1-.08.24-.13.44-.13h2.13c.13 0 .23.03.31.08.08.05.11.13.11.22v5.4zm-1.35-7.79c0-.52.05-.85.14-.99.09-.14.3-.2.61-.2.3 0 .5.06.6.17.1.11.15.38.15.81 0 .42-.04.68-.13.78-.09.1-.29.15-.61.15-.31 0-.51-.05-.61-.14-.1-.1-.15-.29-.15-.58zM320.4 120.3c0 1.04-.35 1.89-1.06 2.55-.71.66-1.63.99-2.76.99s-2.04-.33-2.75-.99c-.71-.66-1.06-1.51-1.06-2.55 0-1.04.35-1.89 1.06-2.54.71-.66 1.63-.99 2.75-.99 1.13 0 2.04.33 2.75.99.71.66 1.07 1.51 1.07 2.54zm-3.82 2.51c.75 0 1.36-.24 1.84-.71s.72-1.07.72-1.81c0-.73-.24-1.34-.72-1.81-.48-.48-1.09-.72-1.83-.72s-1.35.24-1.83.72-.72 1.08-.72 1.81c0 .74.24 1.34.71 1.81.47.48 1.08.71 1.83.71zM213.12 121.41c0 .07-.05.12-.14.17-.09.05-.21.07-.34.07H198.8c-.14 0-.25-.02-.34-.07-.09-.05-.14-.1-.14-.17v-.4c0-.07.05-.12.14-.16.09-.04.21-.06.34-.06h13.84c.14 0 .25.02.34.06.09.04.14.1.14.16v.4z"/>
    <path transform="rotate(-86.084 84.624 21.641)" class="st0" d="M68.41 21.36h32.44v.56H68.41z"/>
    <path transform="rotate(-41.123 120.34 37.224)" class="st0" d="M104.35 36.95h31.98v.56h-31.98z"/>
    <path transform="rotate(-63.685 103.645 25.958)" class="st0" d="M87.61 25.68h32.08v.56H87.61z"/>
    <path class="st1" d="M170.67 93.82v-3.5c-.7.52-1.57 1.22-3.32 2.1-1.92.96-6.03 2.45-11.71 2.45-1.14 0-4.2 0-7.25-1.14-5.86-2.27-9-7.34-9-13.46 0-2.45.52-7.87 6.21-11.71 3.76-2.53 8.57-3.15 12.94-3.76 2.53-.35 5.24-.7 7.78-1.22 1.14-.26 2.36-.52 3.5-.87 0-.17 0-1.4-.26-2.1-.52-1.84-1.84-3.15-5.86-3.15-1.31 0-2.19.17-2.62.26-2.8.7-3.06 3.06-3.32 4.02l-16.87.44c.17-.96.44-1.84.61-2.71.44-1.75 1.4-4.89 4.98-7.69 3.58-2.8 9.09-4.72 18.88-4.72 7.08 0 16.69 1.14 20.19 8.48.96 2.01 1.31 3.85 1.31 8.04v24.65c0 3.32.44 4.02 1.57 5.59h-17.76zm-7.77-18.97c-1.92.44-4.63 1.05-6.03 2.8-.17.26-.79 1.05-.79 2.1 0 1.4 1.14 3.5 4.46 3.5 1.57 0 2.97-.52 4.37-1.22 5.07-2.71 4.81-7.17 4.81-9.26-2.28.77-4.55 1.47-6.82 2.08z"/>
    <path class="st2" d="M301.05 92.15v-3.5c-.7.52-1.57 1.22-3.32 2.1-1.92.96-6.03 2.45-11.71 2.45-1.14 0-4.2 0-7.25-1.14-5.86-2.27-9-7.34-9-13.46 0-2.45.52-7.87 6.21-11.71 3.76-2.53 8.57-3.15 12.94-3.76 2.53-.35 5.24-.7 7.78-1.22 1.14-.26 2.36-.52 3.5-.87 0-.17 0-1.4-.26-2.1-.52-1.84-1.84-3.15-5.86-3.15-1.31 0-2.19.17-2.62.26-2.8.7-3.06 3.06-3.32 4.02l-16.87.44c.17-.96.44-1.84.61-2.71.44-1.75 1.4-4.89 4.98-7.69 3.58-2.8 9.09-4.72 18.88-4.72 7.08 0 16.69 1.14 20.19 8.48.96 2.01 1.31 3.85 1.31 8.04v24.65c0 3.32.44 4.02 1.57 5.59h-17.76zm-7.78-18.97c-1.92.44-4.63 1.05-6.03 2.8-.17.26-.79 1.05-.79 2.1 0 1.4 1.14 3.5 4.46 3.5 1.57 0 2.97-.52 4.37-1.22 5.07-2.71 4.81-7.17 4.81-9.26-2.28.77-4.55 1.47-6.82 2.08zM100.12 85.41c-3.15 3.5-9.88 8.04-21.15 8.04-2.62 0-10.75-.09-17.39-5.33-3.32-2.62-8.39-8.39-8.39-18.7 0-6.29 1.92-12.5 6.21-17.13 3.06-3.32 9.53-7.87 20.54-7.78 2.36 0 11.71.26 18.44 6.12 5.07 4.46 7.6 11.8 7.6 18.53 0 2.44-.44 10.22-5.86 16.25zm-17.74-27.8c-1.31-.44-2.45-.44-2.97-.44-3.15.09-4.89 1.66-5.68 2.53-1.4 1.49-2.62 4.55-2.62 9.18 0 4.46 1.14 7.52 2.27 9.09.7.96 1.66 1.75 2.71 2.18.52.26 1.84.61 3.41.61 2.1 0 4.02-.61 5.42-2.01 1.57-1.57 2.88-4.98 2.88-10.05 0-6.8-2.19-9.95-5.42-11.09z"/>
    <path class="st3" d="M213.21 93.82V69.08c0-1.05 0-2.01-.26-3.06-.44-1.57-1.75-3.76-5.86-3.76-6.64 0-6.56 5.51-6.56 7.43v24.12h-17.92V48.54h16.96v6.03c1.14-1.66 1.31-1.84 2.18-2.71 3.32-3.32 8.13-4.54 12.76-4.54 1.66 0 7.25.09 11.54 3.76 2.36 1.92 3.85 4.89 4.55 7.87.35 1.49.61 3.06.61 6.29v28.58h-18z"/>
    <path class="st1" d="M256.71 104.38V79.64c0-1.05 0-2.01-.26-3.06-.44-1.57-1.75-3.76-5.86-3.76-6.64 0-6.56 5.51-6.56 7.43v24.12h-17.92V59.1h16.96v6.03c1.14-1.66 1.31-1.84 2.18-2.71 3.32-3.32 8.13-4.54 12.76-4.54 1.66 0 7.25.09 11.54 3.76 2.36 1.92 3.85 4.89 4.55 7.87.35 1.49.61 3.06.61 6.29v28.58h-18z"/>
    <path class="st3" d="M142.97 94.5c-5.16 9.35-17.22 9.53-19.67 9.53-6.73 0-13.63-1.92-19.32-5.51-1.75-1.05-3.32-2.36-4.98-3.58l10.14-9.18c.87.79 1.66 1.49 2.54 2.18 1.49 1.05 5.94 3.85 11.45 3.85.44 0 1.84 0 2.97-.52 1.31-.61 1.75-1.75 1.75-2.36 0-.52-.26-.96-.35-1.05-1.14-1.75-3.15-1.57-6.56-2.18-1.05-.17-5.33-1.05-8.92-2.27-4.19-1.4-7.43-3.06-9.44-7.34-.79-1.75-1.22-3.5-1.22-5.42 0-3.93 1.84-6.9 2.62-8.04 2.62-3.67 7.78-7.43 17.92-7.43 5.42 0 12.32 1.14 17.22 3.67 1.66.87 2.88 1.75 4.37 2.88l-9.7 8.83c-1.31-.87-6.12-4.37-11.62-4.37-.35 0-1.57 0-2.54.44-1.05.52-1.31 1.49-1.31 1.92 0 1.14.96 1.66 1.22 1.75.79.44 2.53.79 4.72 1.31 6.64 1.66 10.49 2.27 13.37 3.76 2.27 1.14 7.17 4.63 7.17 11.8 0 2.61-.52 4.97-1.83 7.33zM40.12 91.7V65.83c0-1.31-.09-1.57-.26-2.36-.35-1.75-1.75-4.11-6.21-4.11-1.4 0-5.33.17-6.38 4.2-.26.87-.26 1.84-.26 2.62V91.7H9V29.99h17.92v20.98c.96-1.22 1.4-1.66 2.01-2.27 1.75-1.66 5.86-4.19 12.41-4.19 4.37 0 9.35 1.31 12.59 4.54 1.14 1.14 2.97 3.41 3.67 7.25.44 2.18.52 3.67.52 5.86V91.7h-18z"/>
    <path class="st4" d="M186.84 63.58c0-4.2-.35-6.03-1.31-8.04-.73-1.53-1.73-2.79-2.92-3.83v42.11h5.8c-1.14-1.57-1.57-2.27-1.57-5.59V63.58zM274.1 69.51c-.07-.3-.16-.6-.24-.9-3.7 3.61-4.1 7.9-4.1 10 0 4.51 1.71 8.44 4.95 11.11V75.8c0-3.24-.26-4.81-.61-6.29z"/>
    <path class="st5" d="M231.21 65.24c0-3.12-.24-4.69-.57-6.13h-4.53v34.71h5.1V65.24zM139.79 76.74c-.34 1.41-.41 2.66-.41 3.53 0 4.47 1.69 8.38 4.88 11.05.37-1.34.53-2.71.53-4.16.01-5.31-2.68-8.61-5-10.42z"/>
    <path class="st4" d="M104.89 61.46c-.33.38-.64.76-.91 1.14-.79 1.14-2.62 4.11-2.62 8.04 0 1.92.44 3.67 1.22 5.42.47 1 1.01 1.85 1.61 2.6 1.59-4.12 1.78-7.93 1.78-9.51.01-2.54-.35-5.16-1.08-7.69z"/>
    <path class="st5" d="M57.6 56.3c-.09-.47-.19-.92-.31-1.35-2.81 4.22-4.1 9.31-4.1 14.46 0 7.06 2.37 11.98 4.93 15.23V62.16c0-2.19-.09-3.67-.52-5.86z"/>
    <path class="st0" d="M157.31 96.81c-1.16 0-4.25 0-7.35-1.15-5.84-2.27-9.18-7.27-9.18-13.72 0-3.49 1.1-8.4 6.33-11.94 3.7-2.5 8.47-3.16 12.68-3.75l1.2-.17c2.3-.32 4.68-.64 6.94-1.11l.53-.12c.91-.21 1.85-.42 2.75-.69-.01-.44-.05-1.29-.24-1.79-.44-1.55-1.42-2.97-5.6-2.97-1.28 0-2.15.17-2.57.26-2.33.58-2.77 2.4-3.02 3.48-.03.13-.06.24-.09.34l-.05.2-17.42.45.06-.34c.1-.54.22-1.05.35-1.55.1-.39.19-.78.27-1.16.52-2.08 1.61-5.14 5.08-7.86 4.18-3.26 10.23-4.78 19.05-4.78 10.99 0 17.67 2.82 20.44 8.64 1.03 2.14 1.34 4.05 1.34 8.16v24.65c0 3.33.45 3.94 1.52 5.43l.32.44h-18.56v-3.22c-.64.47-1.5 1.08-2.92 1.79-1.51.75-5.65 2.48-11.86 2.48zm8.04-37.96c3.62 0 5.45 1 6.12 3.35.25.65.27 1.74.27 2.17v.21l-.2.06c-.97.3-1.99.53-2.98.76l-.53.12c-2.28.47-4.67.8-6.98 1.11l-1.2.17c-4.15.58-8.84 1.23-12.44 3.66-5.03 3.4-6.08 8.12-6.08 11.48 0 6.21 3.22 11.02 8.83 13.2 3.01 1.12 6.02 1.12 7.15 1.12 6.09 0 10.13-1.69 11.59-2.42 1.58-.79 2.43-1.43 3.1-1.94l.62-.47v3.77h16.93c-.97-1.39-1.31-2.29-1.31-5.32V65.24c0-4.01-.3-5.86-1.28-7.92-2.67-5.6-9.19-8.32-19.94-8.32-8.69 0-14.63 1.48-18.71 4.66-3.73 2.91-4.57 6.27-4.88 7.54-.08.38-.17.77-.27 1.17-.09.38-.19.78-.27 1.18l16.31-.42c.01-.04.02-.08.03-.13.27-1.13.77-3.22 3.44-3.89.44-.08 1.34-.26 2.68-.26zm-3.15 26.34c-3.47 0-4.74-2.26-4.74-3.77 0-1.05.55-1.84.78-2.18l.05-.08c1.47-1.84 4.19-2.46 6.18-2.91l.08.27-.07-.27c2.26-.61 4.54-1.31 6.8-2.09l.37-.13v.68c.01 2.29.03 6.55-4.96 9.22-1.23.62-2.73 1.26-4.49 1.26zm8.9-10.38c-2.15.73-4.32 1.4-6.47 1.98l-.03.01c-1.91.43-4.53 1.03-5.86 2.7l-.04.06c-.2.3-.68.99-.68 1.86 0 1.11.87 3.22 4.18 3.22 1.64 0 3.06-.6 4.25-1.19 4.62-2.48 4.67-6.45 4.65-8.64zM287.68 95.14c-1.16 0-4.25 0-7.35-1.15-5.84-2.27-9.18-7.27-9.18-13.72 0-3.49 1.1-8.4 6.33-11.94 3.7-2.5 8.47-3.16 12.68-3.75l1.2-.17c2.3-.32 4.68-.64 6.94-1.11l.53-.12c.91-.21 1.85-.42 2.75-.69-.01-.44-.05-1.29-.24-1.79-.44-1.55-1.42-2.97-5.6-2.97-1.28 0-2.15.17-2.57.26-2.33.58-2.77 2.4-3.02 3.48-.03.13-.06.24-.09.34l-.05.2-17.42.45.06-.34c.1-.54.22-1.05.35-1.55.1-.39.19-.78.27-1.16.52-2.08 1.61-5.14 5.08-7.86 4.18-3.26 10.23-4.78 19.05-4.78 10.99 0 17.67 2.82 20.44 8.64 1.03 2.14 1.34 4.05 1.34 8.16v24.65c0 3.33.45 3.94 1.52 5.43l.3.45h-18.56v-3.22c-.64.47-1.5 1.08-2.92 1.79-1.49.74-5.63 2.47-11.84 2.47zm8.04-37.96c3.62 0 5.45 1 6.12 3.35.25.65.27 1.74.27 2.17v.21l-.2.06c-.97.3-1.99.53-2.98.76l-.53.12c-2.28.47-4.67.8-6.98 1.11l-1.2.17c-4.15.58-8.84 1.23-12.44 3.66-5.03 3.4-6.08 8.12-6.08 11.48 0 6.21 3.22 11.02 8.83 13.2 3.01 1.12 6.02 1.12 7.15 1.12 6.09 0 10.13-1.69 11.59-2.42 1.58-.79 2.43-1.43 3.1-1.94l.62-.47v3.77h16.93c-.97-1.39-1.31-2.29-1.31-5.32V63.58c0-4.01-.3-5.86-1.28-7.92-2.67-5.6-9.19-8.32-19.94-8.32-8.69 0-14.63 1.48-18.71 4.66-3.73 2.91-4.57 6.27-4.88 7.54-.08.38-.17.77-.27 1.17-.09.38-.19.78-.27 1.18l16.31-.42c.01-.04.02-.08.03-.13.27-1.13.77-3.22 3.44-3.89.44-.09 1.34-.27 2.68-.27zm-3.15 26.34c-3.47 0-4.74-2.26-4.74-3.77 0-1.05.55-1.84.78-2.18l.05-.08c1.47-1.84 4.19-2.46 6.18-2.91l.08.27-.07-.27c2.26-.61 4.54-1.31 6.8-2.09l.37-.13v.68c.01 2.29.03 6.55-4.96 9.22-1.23.63-2.73 1.26-4.49 1.26zm8.91-10.38c-2.15.73-4.32 1.4-6.47 1.98l-.03.01c-1.91.43-4.53 1.03-5.86 2.7l-.04.06c-.2.3-.68.99-.68 1.86 0 1.11.87 3.22 4.18 3.22 1.64 0 3.06-.6 4.25-1.19 4.61-2.48 4.66-6.45 4.65-8.64zM80.64 95.39c-7.12 0-13.03-1.81-17.57-5.39-3.17-2.5-8.5-8.29-8.5-18.92 0-6.79 2.23-12.94 6.28-17.32 2.72-2.95 8.97-7.87 20.43-7.87h.32c3.46 0 12.21.6 18.62 6.19 4.75 4.18 7.7 11.36 7.7 18.74 0 2.96-.58 10.49-5.93 16.44-2.19 2.45-8.68 8.13-21.35 8.13zm.64-48.94c-11.25 0-17.36 4.81-20.02 7.69-3.95 4.28-6.13 10.29-6.13 16.94 0 10.39 5.19 16.04 8.29 18.49 4.43 3.5 10.23 5.27 17.22 5.27 12.45 0 18.79-5.56 20.95-7.95 5.37-5.97 5.78-13.81 5.78-16.07 0-7.23-2.88-14.25-7.51-18.32-6.28-5.46-14.86-6.05-18.26-6.05h-.32zm-.12 36.27c-1.55 0-2.92-.33-3.53-.64-1.07-.44-2.07-1.25-2.81-2.27-.7-.97-2.33-3.81-2.33-9.25 0-4.13.98-7.55 2.7-9.37 1.48-1.65 3.52-2.56 5.88-2.62.54 0 1.71 0 3.07.45 3.77 1.33 5.6 5.04 5.6 11.36 0 4.56-1.11 8.39-2.97 10.25-1.36 1.37-3.3 2.09-5.61 2.09zm-.09-23.6c-2.2.06-4.09.91-5.47 2.44-.77.82-2.55 3.32-2.55 8.99 0 3.66.83 7 2.22 8.93.68.94 1.6 1.68 2.59 2.09.49.24 1.75.59 3.3.59 2.16 0 3.96-.67 5.22-1.93 1.75-1.76 2.8-5.44 2.8-9.85 0-6.05-1.71-9.6-5.23-10.84-1.26-.42-2.35-.42-2.88-.42z"/>
    <path class="st0" d="M233.16 95.76H214.6V70.75c0-1.06 0-1.98-.25-2.99-.45-1.61-1.78-3.55-5.59-3.55-2.69 0-4.54.94-5.49 2.78-.79 1.53-.79 3.33-.79 4.3v24.48h-18.47V49.93h17.51v5.42c.73-1.03.98-1.28 1.71-2.02 3.82-3.82 9.16-4.63 12.96-4.63 4.75 0 8.8 1.32 11.72 3.82 2.19 1.79 3.84 4.63 4.63 8.01.38 1.62.62 3.25.62 6.36v28.87zm-18.01-.55h17.45V66.9c0-3.38-.3-4.93-.6-6.23-.77-3.26-2.35-6-4.45-7.71-2.82-2.42-6.75-3.7-11.36-3.7-3.7 0-8.87.77-12.56 4.46-.87.87-1.03 1.03-2.15 2.67l-.51.74v-6.65h-16.4V95.2h17.36V71.29c0-1.01 0-2.9.85-4.55 1.05-2.05 3.07-3.08 5.98-3.08 4.15 0 5.62 2.15 6.12 3.96.27 1.09.27 2.08.27 3.13v24.46z"/>
    <path class="st0" d="M276.66 106.32H258.1V81.31c0-1.06 0-1.98-.25-2.99-.45-1.61-1.78-3.55-5.59-3.55-2.69 0-4.54.94-5.49 2.78-.79 1.53-.79 3.33-.79 4.29v24.48H227.5V60.49h17.51v5.42c.73-1.03.98-1.28 1.71-2.02 3.82-3.82 9.16-4.63 12.96-4.63 4.75 0 8.8 1.32 11.72 3.82 2.19 1.79 3.84 4.63 4.63 8.01.38 1.62.62 3.25.62 6.36v28.87zm-18.01-.55h17.45v-28.3c0-3.38-.3-4.93-.6-6.23-.77-3.26-2.35-6-4.45-7.71-2.82-2.42-6.75-3.7-11.36-3.7-3.7 0-8.87.77-12.56 4.46-.87.87-1.03 1.03-2.15 2.67l-.51.74v-6.65h-16.4v44.72h17.36V81.85c0-1.01 0-2.9.85-4.55 1.05-2.05 3.07-3.08 5.98-3.08 4.15 0 5.62 2.15 6.12 3.96.27 1.09.27 2.08.27 3.13v24.46zM124.97 105.98c-6.88 0-13.79-1.97-19.46-5.55-1.26-.76-2.46-1.67-3.62-2.55-.46-.35-.92-.7-1.38-1.04l-.27-.2 10.58-9.57.19.17c.82.74 1.64 1.47 2.52 2.17 1.6 1.13 5.94 3.79 11.28 3.79.44 0 1.78 0 2.86-.5 1.16-.54 1.59-1.56 1.59-2.11 0-.42-.21-.79-.27-.85-.85-1.29-2.15-1.48-4.31-1.78-.62-.09-1.33-.19-2.09-.32-.88-.15-5.24-1.01-8.96-2.28-4.45-1.49-7.62-3.26-9.6-7.49-.85-1.9-1.25-3.65-1.25-5.54 0-3.77 1.67-6.76 2.67-8.2 2.46-3.45 7.6-7.55 18.15-7.55 4.93 0 12.08.97 17.35 3.7 1.49.79 2.61 1.65 3.91 2.65l.76.59-.64.58-9.48 8.5-.45-.3c-1.67-1.13-6.1-4.14-11.2-4.14-1 0-1.82.14-2.42.41-.91.45-1.15 1.29-1.15 1.67 0 1.09 1.02 1.48 1.03 1.48.65.36 1.91.65 3.5 1.02.38.09.78.18 1.19.28 1.75.44 3.31.8 4.7 1.13 3.96.93 6.58 1.54 8.73 2.65 1.71.86 7.32 4.26 7.32 12.05 0 2.8-.59 5.18-1.87 7.48-4.81 8.7-15.53 9.65-19.91 9.65zm-23.86-9.39c.37.28.75.56 1.11.84 1.14.87 2.33 1.78 3.57 2.52 5.59 3.53 12.4 5.47 19.17 5.47 4.28 0 14.75-.91 19.42-9.38 1.23-2.21 1.8-4.5 1.8-7.21 0-7.46-5.37-10.73-7.01-11.55-2.1-1.08-4.69-1.69-8.61-2.61-1.4-.33-2.95-.69-4.71-1.13-.41-.1-.81-.19-1.19-.28-1.64-.38-2.93-.68-3.6-1.06-.35-.11-1.37-.73-1.37-1.99 0-.53.31-1.59 1.47-2.17.68-.31 1.58-.47 2.66-.47 5.27 0 9.8 3.08 11.51 4.24l.09.06 9.29-8.34-.24-.18c-1.28-.98-2.38-1.83-3.83-2.59-5.18-2.68-12.22-3.64-17.09-3.64-5.69 0-13.37 1.27-17.69 7.31-.96 1.39-2.57 4.26-2.57 7.88 0 1.8.38 3.49 1.2 5.3 1.9 4.05 4.96 5.75 9.27 7.19 3.68 1.26 8 2.12 8.87 2.26.76.14 1.46.24 2.08.32 2.23.31 3.7.52 4.65 1.97.14.17.41.65.41 1.22 0 .59-.4 1.91-1.91 2.61-1.19.55-2.62.55-3.09.55-5.5 0-9.95-2.73-11.61-3.9-.84-.67-1.61-1.35-2.37-2.04l-9.68 8.8zM60.07 93.65H41.51V67.5c0-1.17-.07-1.46-.21-2.1l-.04-.2c-.29-1.46-1.45-3.89-5.93-3.89-3.32 0-5.43 1.38-6.11 3.99-.25.84-.25 1.79-.25 2.55v25.8H10.39V31.38h18.47v20.46c.65-.79 1.04-1.18 1.54-1.68 1.06-1.01 5.09-4.28 12.61-4.28 5.11 0 9.89 1.73 12.78 4.63 1.92 1.92 3.22 4.48 3.75 7.4.45 2.23.53 3.74.53 5.91v29.83zm-18.01-.56h17.45V63.83c0-2.13-.08-3.61-.52-5.8-.51-2.81-1.75-5.27-3.59-7.11-2.8-2.79-7.43-4.46-12.39-4.46-7.31 0-11.2 3.15-12.22 4.12-.6.6-1.03 1.03-1.98 2.24l-.5.63v-21.5H10.95V93.1H28.4V67.85c0-.8 0-1.79.27-2.7.75-2.87 3.05-4.39 6.65-4.39 5.07 0 6.22 3.03 6.48 4.33l.04.19c.15.66.23 1 .23 2.23v25.58z"/>
</svg>
