<?xml version="1.0" encoding="UTF-8"?>
<svg id="Layer_1" xmlns="http://www.w3.org/2000/svg" version="1.1" viewBox="0 0 75.8 82.4">
  <!-- Generator: Adobe Illustrator 29.3.1, SVG Export Plug-In . SVG Version: 2.1.0 Build 151)  -->
  <defs>
    <style>
      .st0 {
        fill: #ffcb00;
      }

      .st1 {
        fill: none;
        stroke: #ff9200;
        stroke-miterlimit: 10;
        stroke-width: .5px;
      }
    </style>
  </defs>
  <polygon class="st0" points="23.3 46.2 28.6 27 33.8 46.2 53.3 51.4 33.8 56.5 28.6 75.8 23.3 56.5 3.9 51.4 23.3 46.2"/>
  <polygon class="st0" points="48.4 17.8 52.1 4.3 55.8 17.8 69.5 21.5 55.8 25.1 52.1 38.6 48.4 25.1 34.7 21.5 48.4 17.8"/>
  <polygon class="st1" points="24.8 47.7 30.1 28.5 35.3 47.7 54.8 52.8 35.3 58 30.1 77.2 24.8 58 5.4 52.8 24.8 47.7"/>
  <polygon class="st1" points="49.9 19.3 53.6 5.8 57.3 19.3 71 22.9 57.3 26.6 53.6 40.1 49.9 26.6 36.2 22.9 49.9 19.3"/>
</svg>